<svg
  version="1.1"
  x="0px"
  y="0px"
  viewBox="0 0 500 500"
  style="enable-background: new 0 0 500 500"
  xml:space="preserve"
  id="svg119"
  sodipodi:docname="45199726_9082256_without_bg.svg"
  inkscape:version="1.4.2 (ebf0e940d0, 2025-05-08)"
  xmlns:inkscape="http://www.inkscape.org/namespaces/inkscape"
  xmlns:sodipodi="http://sodipodi.sourceforge.net/DTD/sodipodi-0.dtd"
  xmlns="http://www.w3.org/2000/svg"
  xmlns:svg="http://www.w3.org/2000/svg"
>
  <defs
    id="defs119"
  /><sodipodi:namedview
    id="namedview119"
    pagecolor="#ffffff"
    bordercolor="#000000"
    borderopacity="0.25"
    inkscape:showpageshadow="2"
    inkscape:pageopacity="0.0"
    inkscape:pagecheckerboard="0"
    inkscape:deskcolor="#d1d1d1"
    inkscape:zoom="1.168"
    inkscape:cx="250"
    inkscape:cy="250"
    inkscape:window-width="1536"
    inkscape:window-height="795"
    inkscape:window-x="0"
    inkscape:window-y="0"
    inkscape:window-maximized="1"
    inkscape:current-layer="svg119"
  />

  <g
    id="OBJECTS"
  >
    <path
      style="clip-rule: evenodd; display: none; fill: #b2d9f6; fill-rule: evenodd"
      d="m 108.621,179.783 c 58.93,-152.012 212.527,-87.64 275.594,-1.977 36.795,49.974 30.336,93.731 11.285,122.326 -20.672,31.026 -110.453,90.131 -198.561,89.112 C 137.893,388.56 49.69,331.795 108.621,179.783 Z"
      id="path1"
      inkscape:label="path1"
    />
    <path
      style="clip-rule: evenodd; display: none; fill: #d9d9d9; fill-rule: evenodd"
      d="m 251.037,421.12 c 77.264,0 139.897,13.625 139.897,30.431 0,20.477 -279.794,20.155 -279.794,0 0.001,-16.806 62.634,-30.431 139.897,-30.431 z"
      id="path2"
    />
    <g
      id="g119"
    >
      <g
        id="g48"
      >
        <g
          id="g31"
        >
          <path
            style="fill-rule: evenodd; clip-rule: evenodd; fill: #0f0e0e"
            d="M173.992,133.499c-0.605-1.875-1.215-3.747-1.811-5.626      c-1.126-3.547-2.23-7.107-3.097-10.729c-0.606-2.536-1.381-6.093-0.854-8.655c2.363-11.478,11.989-22.387,20.9-29.558      c2.421-1.948,5.069-3.854,7.868-5.606c-0.101-1.016-0.153-2.039-0.153-3.066c0-3.386,0.557-6.73,1.64-9.938      c2.778-8.219,8.758-14.889,16.027-19.468c8.17-5.146,17.844-7.641,27.464-7.641c9.622,0,19.295,2.494,27.464,7.641      c7.27,4.579,13.249,11.25,16.027,19.468c1.084,3.208,1.641,6.552,1.641,9.938c0,1.149-0.064,2.293-0.191,3.429      c4.062,3.048,7.759,6.505,10.75,9.764c6.472,7.05,12.86,16.529,14.7,26.048c0.189,0.98,0.128,2.099,0.09,3.097      c-0.06,1.527-0.174,3.052-0.305,4.575c-0.361,4.183-0.871,8.354-1.52,12.502c-0.1,0.64-0.247,1.291-0.392,1.922      c-0.105,0.467-0.217,0.936-0.33,1.402c0.894,0.064,1.807,0.208,2.734,0.441c4.869,1.22,9.007,3.975,11.125,8.647      c3.178,7.009,0.619,15.593-3.572,21.612c-4.363,6.268-11.56,11.315-19.511,10.441c-1.428-0.157-2.81-0.437-4.106-0.865      c-2.454,4.951-5.647,9.444-9.709,13.09c-1.582,1.42-3.308,2.67-5.143,3.744c-5.376,3.143-11.473,4.656-17.599,5.464      c-6.585,0.868-13.244,0.976-19.875,1.129c-19.899,0.458-45.316-1.7-55.139-22.089c-0.375-0.781-0.738-1.565-1.089-2.355      c-1.578,0.693-3.38,1.148-5.372,1.366c-1.432,0.157-2.877,0.121-4.299-0.103c-6.077-0.948-11.28-5.128-14.72-10.066      c-7.4-10.629-7.296-25.825,7.385-29.507C172.034,133.692,173.024,133.547,173.992,133.499z"
            id="path3"
          />
          <g
            id="g30"
          >
            <path
              style="fill-rule: evenodd; clip-rule: evenodd; fill: #0f0e0e"
              d="M312.314,134.763c4.462,1.118,8.27,3.601,10.213,7.887       c2.97,6.552,0.454,14.665-3.448,20.269c-4.078,5.855-10.795,10.682-18.241,9.863c-4.821-0.53-9.117-2.533-10.911-7.312       c-0.965-2.567-0.998-5.408-0.73-8.105C290.267,146.54,299.632,131.581,312.314,134.763z"
              id="path4"
            />
            <path
              style="fill-rule: evenodd; clip-rule: evenodd; fill: #e9bc9d"
              d="M311.815,136.749c20.342,5.102,5.844,35.822-10.754,33.996       c-9.689-1.064-10.365-7.741-9.828-13.179C292.187,147.917,300.567,133.927,311.815,136.749z"
              id="path5"
            />
            <path
              style="fill-rule: evenodd; clip-rule: evenodd; fill: #d17f59"
              d="M300.196,151.356c-1.645,1.243-3.107,6.413-3.107,6.413       s5.42-2.415,7.179-0.131c1.758,2.285-1.223,6.432-1.223,6.432s10.768-0.608,13.233-9.507       c2.467-8.899-3.204-10.101-4.929-10.261C309.624,144.142,303.388,144.063,300.196,151.356z"
              id="path6"
            />
            <path
              style="fill-rule: evenodd; clip-rule: evenodd; fill: #0f0e0e"
              d="M171.355,135.27c12.34-3.096,21.457,11.437,22.498,21.975       c0.116,1.169,0.173,2.347,0.12,3.52c-0.31,7.01-4.501,10.733-11.466,11.5c-1.312,0.144-2.635,0.109-3.94-0.095       c-5.698-0.89-10.588-4.872-13.809-9.497C157.924,152.858,157.636,138.712,171.355,135.27z"
              id="path7"
            />
            <path
              style="fill-rule: evenodd; clip-rule: evenodd; fill: #e9bc9d"
              d="M171.853,137.258       c-19.728,4.948-5.667,34.742,10.431,32.972c9.396-1.034,10.052-7.507,9.531-12.784       C190.89,148.089,182.763,134.52,171.853,137.258z"
              id="path8"
            />
            <path
              style="fill-rule: evenodd; clip-rule: evenodd; fill: #d17f59"
              d="M183.423,151.356c1.645,1.243,3.106,6.413,3.106,6.413       s-5.42-2.415-7.179-0.131c-1.757,2.285,1.223,6.432,1.223,6.432s-10.768-0.608-13.233-9.507       c-2.466-8.899,3.203-10.101,4.929-10.261C173.995,144.142,180.232,144.063,183.423,151.356z"
              id="path9"
            />
            <path
              style="fill-rule: evenodd; clip-rule: evenodd; fill: #0f0e0e"
              d="M167.97,148.605c1.644-4.051,4.227-5.295,8.658-2.878       c2.955,1.614,4.729,4.308,6.11,7.286c1.485,3.199,0.215,1.908,2.876,3.623c0.524-1.9,0.602-1.99-0.583-4.662       C179.585,139.705,166.252,141.964,167.97,148.605L167.97,148.605z M185.613,156.637c0.158,0.103,0.329,0.213,0.517,0.339       c-0.178-0.082-0.36-0.159-0.545-0.235L185.613,156.637L185.613,156.637z M185.585,156.741       c-0.147,0.533-0.326,1.203-0.522,2.102c-2.413-1.312-6.471-2.837-6.097,1.613c0.189,2.26,1.796,2.742,2.468,3.819       c-1.497,0.167-3.366-2.132-3.682-3.627C176.555,154.993,181.71,155.162,185.585,156.741z"
              id="path10"
            />
            <path
              style="fill-rule: evenodd; clip-rule: evenodd; fill: #0f0e0e"
              d="M315.819,148.451c-1.694-4.178-4.356-5.461-8.926-2.967       c-3.048,1.663-4.877,4.441-6.301,7.512c-1.53,3.298-0.22,1.967-2.964,3.735c-0.542-1.958-0.621-2.052,0.602-4.807       C303.844,139.273,317.592,141.602,315.819,148.451L315.819,148.451z M297.629,156.73c-0.163,0.105-0.341,0.222-0.533,0.351       c0.184-0.085,0.371-0.166,0.563-0.243L297.629,156.73L297.629,156.73z M297.658,156.838c0.152,0.548,0.336,1.242,0.537,2.166       c2.487-1.352,6.672-2.923,6.286,1.665c-0.195,2.328-1.852,2.826-2.545,3.937c1.544,0.172,3.472-2.199,3.797-3.739       C306.969,155.037,301.653,155.209,297.658,156.838z"
              id="path11"
            />
            <path
              style="fill-rule: evenodd; clip-rule: evenodd; fill: #0f0e0e"
              d="M241.977,34.578c24.171,0,43.767,15.974,43.767,35.681       c0,19.707-19.596,35.682-43.767,35.682c-24.171,0-43.766-15.975-43.766-35.682C198.211,50.552,217.806,34.578,241.977,34.578z"
              id="path12"
            />
            <path
              style="fill-rule: evenodd; clip-rule: evenodd; fill: #c5c5c5"
              d="M241.977,36.625c-23.04,0-41.717,15.058-41.717,33.633       s18.678,33.632,41.717,33.632c23.04,0,41.718-15.057,41.718-33.632S265.018,36.625,241.977,36.625z"
              id="path13"
            />
            <path
              style="fill-rule: evenodd; clip-rule: evenodd; fill: #ffffff"
              d="M241.977,36.625c-16.224,0-30.284,7.466-37.183,18.37       c6.9,4.538,20.96,7.645,37.183,7.645c16.225,0,30.285-3.107,37.184-7.645C272.262,44.092,258.202,36.625,241.977,36.625z"
              id="path14"
            />
            <path
              style="fill-rule: evenodd; clip-rule: evenodd; fill: #afb0b0"
              d="M240.563,36.646c-0.71,0.02-1.416,0.052-2.116,0.101       c-0.573,0.5-1.169,1.026-1.796,1.579c-5.204,4.597-7.936,11.234-9.248,17.976c-2.195,11.291-0.345,23.004,0.492,25.732       c-0.425,0.065-1.363,0.055-2.607-0.059c-1.798-0.165-4.088-0.639-6.285-1.592c-4.347-1.886-8.331-5.688-7.24-12.784       c1.21-7.871,5.019-15.867,10.29-22.19c2.379-2.855,5.053-5.367,7.917-7.368c-1.194,0.29-2.365,0.62-3.511,0.99       c-1.94,1.635-3.769,3.489-5.452,5.509c-5.424,6.509-9.345,14.746-10.592,22.857c-1.217,7.904,3.214,12.138,8.05,14.236       c2.346,1.017,4.787,1.522,6.701,1.698c2.079,0.19,3.67-0.078,4.031-0.521l0.001,0c0.251-0.312,0.273-0.647,0.04-0.998       c-0.602-0.903-2.838-13.206-0.495-25.254c1.261-6.483,3.868-12.848,8.81-17.214C238.695,38.334,239.693,37.439,240.563,36.646       L240.563,36.646z M257.094,38.904c-0.997-0.313-2.013-0.595-3.045-0.846c4.464,3.659,8.404,8.266,11.455,13.327       c3.353,5.561,5.626,11.66,6.329,17.637c1.152,9.797,1.009,11.925,0.916,12.376c-1.921,0.64-14.49,4.157-14.49-13.417       c0-15.35-6.857-26.486-10.197-30.998c-0.614-0.073-1.233-0.135-1.856-0.186c2.762,3.475,10.686,14.869,10.686,31.184       c0,20.984,16.529,14.628,16.577,14.611c0.305-0.113,0.48-0.42,0.44-0.729c0.176-1.049,0.319-4.133-0.723-12.996       c-0.727-6.177-3.066-12.465-6.516-18.186C264.051,46.332,260.783,42.306,257.094,38.904z"
              id="path15"
            />
            <path
              style="fill-rule: evenodd; clip-rule: evenodd; fill: #0f0e0e"
              d="M190.348,174.018       c-12.957-26.897-10.473-59.365,5.009-84.687c4.83-7.9,13.03-13.108,21.606-16.143c9.499-3.361,20.135-4.352,30.133-3.317       c15.837,1.641,32.005,8.621,40.839,22.43c5.02,7.844,8.726,16.506,11.085,25.509c2.233,8.521,3.282,17.429,2.994,26.236       c-0.478,14.511-4.873,31.268-16.053,41.3c-1.516,1.359-3.163,2.554-4.921,3.582c-5.212,3.048-11.146,4.506-17.087,5.29       c-6.506,0.857-13.174,0.965-19.728,1.117C224.899,195.78,199.88,193.804,190.348,174.018z"
              id="path16"
            />
            <path
              style="fill-rule: evenodd; clip-rule: evenodd; fill: #d17f59"
              d="M192.194,173.129c8.661,17.98,31.175,20.637,51.983,20.157       c16.091-0.37,30.605-0.66,40.415-9.465c18.857-16.924,21.598-59.182,1.617-90.415c-18.759-29.322-73.823-28-89.105-3.006       C182.016,115.077,179.514,146.807,192.194,173.129z"
              id="path17"
            />
            <path
              style="fill-rule: evenodd; clip-rule: evenodd; fill: #e9bc9d"
              d="M299.974,138.739       c-0.427-15.146-4.815-31.345-13.764-45.333c-18.759-29.322-73.823-28-89.105-3.006c-8.148,13.327-12.623,28.711-13.022,44.19       c0.314,10.853,2.959,21.653,8.112,31.62c8.661,16.757,31.175,19.232,51.983,18.787c16.091-0.345,30.605-0.615,40.415-8.82       C294.084,168.238,299.491,154.318,299.974,138.739z"
              id="path18"
            />
            <path
              style="fill-rule: evenodd; clip-rule: evenodd; fill: #d17f59"
              d="M184.616,150.469c4.698-10.117,12.285-20.594,26.737-22.22       c14.452-1.625,23.305-4.516,27.46-8.491c4.155-3.974,4.155-3.974,4.155-3.974s5.962,7.768,17.163,10.658       c11.2,2.89,15.175,0.903,23.124,4.877c7.948,3.975,16.44,15.357,16.44,15.357s-15.536-37.757-25.653-45.345       c-10.116-7.587-33.963-16.62-47.693-11.2C212.617,95.551,178.293,101.331,184.616,150.469z"
              id="path19"
            />
            <path
              style="fill-rule: evenodd; clip-rule: evenodd; fill: #ffffff"
              d="M220.063,120.259c3.657-1.134,5.169,4.917,2.395,6.683       c-2.773,1.765-12.354,3.152-13.112,0.378C208.591,124.547,214.39,120.259,220.063,120.259z"
              id="path20"
            />
            <path
              style="fill-rule: evenodd; clip-rule: evenodd; fill: #ffffff"
              d="M264.834,120.259c-3.656-1.134-5.169,4.917-2.396,6.683       c2.773,1.765,12.355,3.152,13.112,0.378C276.308,124.547,270.507,120.259,264.834,120.259z"
              id="path21"
            />
            <path
              style="fill-rule: evenodd; clip-rule: evenodd; fill: #0f0e0e"
              d="M243.37,109.963c-1.33,2.648-3.091,5.066-5.162,7.189       c-3.009,3.087-6.879,5.754-10.953,7.203c-1.644,0.584-3.509,0.727-4.79-0.688c-1.512-1.67-0.792-3.931,0.109-5.77       c-1.113,0.365-2.235,0.706-3.357,1.046c-3.158,0.957-6.314,1.924-9.329,3.282c-8.508,3.832-14.224,11.088-18.926,18.956       c-0.119,0.236-0.227,0.503-0.333,0.747c-0.248,0.57-0.489,1.144-0.727,1.72c-0.688,1.669-1.345,3.356-1.945,5.061       c-0.592,1.682-1.801,5.205-1.679,6.96l0.039,0.565l-0.549,0.143c-1.521,0.396-2.922-2.185-3.501-3.241       c-1.249-2.28-2.286-4.814-3.231-7.236c-1.4-3.588-2.673-7.251-3.849-10.921c-0.783-2.439-1.581-4.873-2.355-7.313       c-1.121-3.531-2.221-7.076-3.083-10.681c-0.577-2.413-1.352-5.924-0.85-8.359c2.328-11.311,11.882-22.1,20.659-29.163       c7.723-6.215,17.797-12.005,27.647-13.725c6.601-1.151,13.849-1.252,20.165,1.234c1.872,0.736,3.82,1.788,5.418,3.063       c2.43-1.578,4.79-2.804,7.594-3.688c6.058-1.909,12.556-1.754,18.743-0.604c10.278,1.91,21.11,10.621,28.039,18.169       c6.381,6.951,12.719,16.328,14.533,25.715c0.178,0.917,0.114,2.005,0.077,2.941c-0.059,1.517-0.172,3.031-0.303,4.543       c-0.359,4.168-0.867,8.323-1.514,12.456c-0.097,0.624-0.242,1.26-0.382,1.876c-0.227,0.994-0.471,1.982-0.723,2.968       c-0.666,2.6-1.395,5.191-2.191,7.752c-0.904,2.914-1.924,5.998-3.225,8.758c-0.557,1.184-2.057,4.403-3.826,3.693l-0.346-0.139       l-0.071-0.367c-0.409-2.128-0.78-4.255-1.249-6.372c-0.408-1.842-0.932-4.11-1.733-5.816       c-2.855-6.069-7.153-11.741-12.956-15.247c-3.134-1.893-6.39-3.458-9.861-4.629c-2.677-0.905-5.435-2.504-8.142-3.315       c-0.273-0.082-0.547-0.166-0.82-0.253c0.751,1.711,1.2,3.692-0.158,5.191c-1.282,1.414-3.146,1.272-4.79,0.688       c-3.885-1.383-7.578-3.869-10.508-6.753C246.714,115.373,244.793,112.8,243.37,109.963z"
              id="path22"
            />
            <path
              style="fill-rule: evenodd; clip-rule: evenodd; fill: #0f0e0e"
              d="M242.744,70.881c2.485-1.646,4.798-2.921,7.845-3.881       c5.959-1.877,12.327-1.714,18.412-0.584c10.126,1.881,20.864,10.555,27.661,17.959c6.278,6.838,12.577,16.133,14.366,25.384       c0.156,0.81,0.098,1.957,0.065,2.785c-0.059,1.503-0.172,3.012-0.301,4.51c-0.358,4.144-0.865,8.301-1.508,12.41       c-0.519,3.316-6.315,25.764-9.42,24.519c-0.565-2.949-1.627-9.36-3.034-12.351c-2.913-6.192-7.301-11.964-13.222-15.541       c-3.195-1.93-6.458-3.497-9.994-4.691c-2.697-0.911-5.444-1.552-8.165-2.367c-0.811-0.243-1.598-0.501-2.365-0.779       c0.044,0.081,0.087,0.161,0.13,0.241c0.857,1.615,2.025,4.048,0.555,5.672c-1.084,1.195-2.695,0.986-4.055,0.502       c-3.786-1.347-7.405-3.787-10.258-6.596c-2.561-2.522-4.663-5.482-6.086-8.764c-1.339,3.086-3.28,5.893-5.65,8.324       c-2.931,3.007-6.723,5.624-10.694,7.037c-1.359,0.484-2.972,0.693-4.055-0.502c-1.511-1.668-0.235-4.21,0.652-5.852       c0.12-0.222,0.243-0.444,0.369-0.666c-1.639,0.587-3.308,1.094-4.973,1.599c-3.2,0.969-6.354,1.936-9.411,3.313       c-8.629,3.886-14.442,10.261-19.247,18.302c-0.125,0.208-5.01,11.298-4.763,14.857c-2.901,0.752-9.692-20.735-9.76-20.947       c-0.783-2.438-1.579-4.871-2.354-7.311c-1.112-3.504-2.215-7.06-3.069-10.634c-0.538-2.254-1.316-5.775-0.845-8.063       c2.294-11.149,11.792-21.827,20.419-28.769c7.61-6.124,17.616-11.886,27.337-13.583c6.463-1.128,13.601-1.241,19.797,1.198       C238.969,68.336,241.095,69.474,242.744,70.881z"
              id="path23"
            />
            <path
              style="fill-rule: evenodd; clip-rule: evenodd; fill: #c5c5c5"
              d="M242.877,104.167       c-2.045,9.619-10.107,16.283-16.538,18.571c-4.212,1.498-1.217-3.437,3.224-9.992c-11.098,7.165-26.768,3.308-40.961,27.063       c-4.303,7.2-3.374,8.806-4.1,10.632c-0.559,1.404-3.501-6.276-6.714-16.295c-2.912-9.077-7.019-21.056-6.212-24.969       c3.595-17.463,27.573-37.513,46.101-40.748c17.465-3.048,24.117,4.247,24.824,5.094c3.683-2.551,10.819-7.938,26.127-5.094       c15.309,2.844,37.012,24.255,40.389,41.718c0.536,2.771-2.668,36.144-7.979,37.371c-1.213,0.28-0.69-3.225-2.353-6.76       c-2.362-5.023-6.73-12.02-14.016-16.421c-12.399-7.49-18.471-5.46-27.171-11.115c4.261,6.315,7.012,10.977,2.902,9.516       c-6.149-2.188-13.79-8.376-16.236-17.322c-0.285-1.043-0.503-1.977-0.665-2.804c-0.105-0.016-0.211-0.034-0.317-0.051       C243.1,103.058,242.999,103.592,242.877,104.167z"
              id="path24"
            />
            <path
              style="fill-rule: evenodd; clip-rule: evenodd; fill: #d17f59"
              d="M230.275,177.346c12.783,6.204,25.372-0.348,25.372-0.348       C249.061,189.394,234.856,189.374,230.275,177.346z"
              id="path25"
            />
            <path
              style="fill-rule: evenodd; clip-rule: evenodd; fill: #ffffff"
              d="M229.961,88.505c6.09-3.123,6.781-2.332,4.7,0.009       c-2.383,2.682-8.403,7.398-14.12,10.603c-0.746,0.419-1.487,0.812-2.213,1.17c-0.096,0.047-0.192,0.094-0.288,0.141       c-7.29,3.527-2.337,3.764,4.252,1.707c0.967-0.301,1.97-0.653,2.974-1.051c2.667-1.056,5.345-2.439,7.407-4.088       c4.738-3.79,6.96-6.599,7.989-8.282c0.737-1.206,0.862-1.835,0.862-1.835s0.26,0.796,0.85,2.036       c1.313,2.763,4.265,7.728,9.628,10.971c5.703,3.447,1.768-4.59-0.729-9.11c-0.904-1.638-1.62-2.813-1.62-2.813       s7.896,4.34,19.129,8.068c0.795,0.265,1.604,0.525,2.432,0.781c5.854,1.813,12.467,3.384,19.262,4.091       c0.795,0.083,1.591,0.154,2.39,0.212c3.113,0.226,6.251,0.258,9.358,0.036c1.239-0.088,2.392-0.227,3.472-0.411       c-4.459-8.96-12.325-17.921-20.631-24.178c-0.605-0.456-1.213-0.898-1.821-1.324c-5.005-3.504-10.09-5.967-14.614-6.808       c-9.533-1.771-15.896-0.351-20.231,1.589c-1.241,0.556-2.316,1.154-3.252,1.732c-1.043,0.646-1.913,1.265-2.645,1.772       c-0.208-0.249-0.928-1.054-2.286-1.99c-0.938-0.648-2.182-1.357-3.77-1.99c-3.933-1.563-9.983-2.648-18.769-1.114       c-5.412,0.946-11.291,3.325-16.99,6.657c-0.625,0.365-1.248,0.741-1.869,1.129c-8.674,5.424-16.761,12.964-21.929,20.871       c4.044,0.882,8.796,1.12,13.814,0.887c0.774-0.037,1.553-0.084,2.338-0.141c5.797-0.427,11.849-1.428,17.504-2.746       c0.838-0.195,1.67-0.397,2.489-0.606c1.615-0.412,3.186-0.847,4.7-1.298c3.463-1.035,6.62-2.16,9.273-3.299       C228.078,89.425,229.067,88.963,229.961,88.505z"
              id="path26"
            />
            <path
              style="fill-rule: evenodd; clip-rule: evenodd; fill: #0f0e0e"
              d="M216.522,118.053c0.533-0.186,1.114,0.096,1.301,0.628       c0.186,0.532-1.301,0.993-1.833,1.18c-4.756,1.661-8.997,3.561-14.411,4.866c-5.451,1.312-10.856,2.138-15.479,1.871       c-0.563-0.031-0.995-0.513-0.964-1.076c0.031-0.564,0.513-0.995,1.076-0.964c4.412,0.255,9.621-0.546,14.895-1.815       C206.414,121.463,211.803,119.701,216.522,118.053z"
              id="path27"
            />
            <path
              style="fill-rule: evenodd; clip-rule: evenodd; fill: #0f0e0e"
              d="M269.004,119.697c-0.51-0.238-0.73-0.846-0.492-1.357       c0.239-0.51,1.087-0.007,1.597,0.23c3.994,1.864,10.612,3.194,17.123,4.085c4.959,0.678,9.669,0.68,12.633-0.604       c0.517-0.223,1.116,0.016,1.34,0.532c0.223,0.517-0.016,1.116-0.532,1.34c-3.346,1.449-8.433,1.477-13.713,0.756       C280.251,123.764,273.153,121.634,269.004,119.697z"
              id="path28"
            />
            <path
              style="fill-rule: evenodd; clip-rule: evenodd; fill: #0f0e0e"
              d="M236.188,104.492c0.369-0.426,1.013-0.473,1.44-0.104       c0.426,0.369,0.473,1.013,0.104,1.44c-3.419,3.94-7.501,7.214-12.172,9.915c-4.656,2.691-9.893,4.812-15.638,6.453       c-3.857,1.103-5.579,0.756-5.934-0.482c-0.539-1.89,3.948-5.703,7.805-8.978c2.28-1.936,4.316-3.666,4.66-4.297       c0.27-0.494,0.889-0.677,1.384-0.408c0.495,0.271,0.678,0.89,0.408,1.385c-0.528,0.971-2.702,2.815-5.132,4.88       c-3.391,2.881-7.335,6.23-7.155,6.858c0.007,0.026,0.961-0.229,3.403-0.926c5.594-1.597,10.676-3.653,15.174-6.252       C229.017,111.384,232.925,108.252,236.188,104.492z"
              id="path29"
            />
            <path
              style="fill-rule: evenodd; clip-rule: evenodd; fill: #0f0e0e"
              d="M250.862,107.392c-0.369-0.426-0.322-1.071,0.104-1.44       c0.427-0.369,1.073-0.322,1.441,0.104c3.277,3.789,7.225,6.895,11.767,9.409c4.561,2.526,9.741,4.465,15.456,5.909       c2.462,0.622,3.423,0.838,3.433,0.798c0.165-0.655-3.761-3.861-7.135-6.616c-2.437-1.989-4.613-3.768-5.146-4.724       c-0.275-0.493-0.097-1.115,0.396-1.388c0.493-0.274,1.114-0.096,1.388,0.396c0.342,0.615,2.374,2.274,4.649,4.131       c3.844,3.138,8.314,6.789,7.833,8.697c-0.32,1.263-2.027,1.674-5.913,0.691c-5.868-1.483-11.208-3.486-15.946-6.109       C258.431,114.615,254.296,111.362,250.862,107.392z"
              id="path30"
            />
          </g>
        </g>
        <g
          id="g47"
        >
          <g
            id="g44"
          >
            <g
              id="g43"
            >
              <path
                style="fill-rule: evenodd; clip-rule: evenodd; fill: #0f0e0e"
                d="M262.84,129.914c3.418,0,6.188,3.791,6.188,8.468        c0,4.676-2.77,8.467-6.188,8.467c-3.418,0-6.188-3.791-6.188-8.467C256.651,133.705,259.422,129.914,262.84,129.914z"
                id="path31"
              />
              <path
                style="fill-rule: evenodd; clip-rule: evenodd; fill: #d17f59"
                d="M210.175,152.508c5.278,0,9.558,2.645,9.558,5.908        c0,3.264-4.28,5.909-9.558,5.909c-5.279,0-9.558-2.645-9.558-5.909C200.617,155.153,204.896,152.508,210.175,152.508z"
                id="path32"
              />
              <path
                style="fill-rule: evenodd; clip-rule: evenodd; fill: #d17f59"
                d="M273.898,152.508c5.279,0,9.558,2.645,9.558,5.908        c0,3.264-4.278,5.909-9.558,5.909c-5.278,0-9.557-2.645-9.557-5.909C264.342,155.153,268.62,152.508,273.898,152.508z"
                id="path33"
              />
              <path
                style="fill-rule: evenodd; clip-rule: evenodd; fill: #ffffff"
                d="M267.019,131.76c1.049,0,1.899,0.85,1.899,1.9        c0,1.048-0.85,1.899-1.899,1.899c-1.05,0-1.9-0.851-1.9-1.899C265.119,132.61,265.97,131.76,267.019,131.76z"
                id="path34"
              />
              <path
                style="fill-rule: evenodd; clip-rule: evenodd; fill: #0f0e0e"
                d="M221.115,129.914c-3.417,0-6.188,3.791-6.188,8.468        c0,4.676,2.771,8.467,6.188,8.467c3.417,0,6.188-3.791,6.188-8.467C227.304,133.705,224.533,129.914,221.115,129.914z"
                id="path35"
              />
              <path
                style="fill-rule: evenodd; clip-rule: evenodd; fill: #ffffff"
                d="M216.936,131.76c-1.049,0-1.9,0.85-1.9,1.9        c0,1.048,0.851,1.899,1.9,1.899c1.049,0,1.899-0.851,1.899-1.899C218.835,132.61,217.985,131.76,216.936,131.76z"
                id="path36"
              />
              <g
                id="g37"
              >
                <path
                  style="fill-rule: evenodd; clip-rule: evenodd; fill: none"
                  d="M253.665,155.627 M253.665,155.627"
                  id="path37"
                />
              </g>
              <path
                style="fill-rule: evenodd; clip-rule: evenodd; fill: #0f0e0e"
                d="M229.293,168.941c-0.424-0.371-0.467-1.017-0.096-1.44        c0.371-0.424,1.016-0.467,1.44-0.096c4.777,4.192,11.317,4.101,11.336,4.101l0.008,0.001c0.019-0.001,6.558,0.09,11.337-4.102        c0.424-0.371,1.069-0.328,1.44,0.096c0.371,0.424,0.327,1.069-0.097,1.44c-5.313,4.661-12.522,4.607-12.685,4.604        C241.816,173.548,234.605,173.602,229.293,168.941z"
                id="path38"
              />
              <path
                style="fill-rule: evenodd; clip-rule: evenodd; fill: #d17f59"
                d="M242.181,160.836c8.16,0,11.307-6.359,11.307-2.829        c0,3.531-4.875,8.502-11.411,8.502c-6.535,0-11.531-5.151-11.531-8.682C230.546,154.297,234.019,160.836,242.181,160.836z"
                id="path39"
              />
              <path
                style="fill-rule: evenodd; clip-rule: evenodd; fill: #0f0e0e"
                d="M233.513,151.023c-3.551,3.071-3.338,4.703,1.358,7.347        c6.245,3.514,11.091,2.737,16.968-1.347c2.521-1.753,0.125-4.626-1.41-6c0.981,0.262,1.018,0.146,1.826,0.881        c5.738,5.219-4.671,9.818-7.9,10.569C237.38,164.094,223.787,154.407,233.513,151.023z"
                id="path40"
              />
              <path
                style="fill-rule: evenodd; clip-rule: evenodd; fill: #d17f59"
                d="M220.051,174.402c-0.553,0.116-1.094-0.24-1.208-0.792        c-0.115-0.552,0.239-1.093,0.792-1.207c2.481-0.517,4.027-2.629,4.032-2.636l0.007-0.012c0.004-0.005,1.607-2.075,1.418-4.603        c-0.041-0.563,0.381-1.054,0.944-1.097c0.564-0.042,1.055,0.381,1.097,0.944c0.247,3.31-1.829,5.988-1.835,5.996        C225.154,171.186,223.183,173.751,220.051,174.402z"
                id="path41"
              />
              <path
                style="fill-rule: evenodd; clip-rule: evenodd; fill: #d17f59"
                d="M264.638,172.403c0.552,0.114,0.907,0.655,0.792,1.207        c-0.115,0.552-0.656,0.908-1.208,0.792c-3.133-0.651-5.104-3.216-5.248-3.406c-0.006-0.007-2.083-2.686-1.834-5.996        c0.041-0.563,0.532-0.986,1.096-0.944c0.563,0.042,0.986,0.533,0.943,1.097c-0.188,2.528,1.415,4.598,1.42,4.603l0.007,0.012        C260.61,169.773,262.155,171.886,264.638,172.403z"
                id="path42"
              />
              <path
                style="fill-rule: evenodd; clip-rule: evenodd; fill: #d17f59"
                d="M246.546,151.994c1.048,0,1.899,0.849,1.899,1.899        c0,1.049-0.851,1.899-1.899,1.899c-1.05,0-1.9-0.85-1.9-1.899C244.645,152.843,245.496,151.994,246.546,151.994z"
                id="path43"
              />
            </g>
            <path
              style="fill-rule: evenodd; clip-rule: evenodd; fill: #ffffff"
              d="M222.126,143.613c-1.654,0-3.151,0.67-4.234,1.753       c-1.083,1.083-1.753,2.581-1.753,4.232c0,1.653,0.669,3.15,1.753,4.234c1.083,1.084,2.58,1.753,4.234,1.753       c1.653,0,3.149-0.67,4.233-1.753c1.082-1.084,1.753-2.581,1.753-4.234c0-1.651-0.671-3.149-1.753-4.232       C225.275,144.283,223.779,143.613,222.126,143.613L222.126,143.613z M177.067,135.581c4.524-0.657,11.665,0.769,18.641,2.904       c6.992,2.142,13.9,5.03,17.847,7.247c0.471-1.041,1.125-1.982,1.924-2.78c1.7-1.703,4.051-2.755,6.647-2.755       c2.595,0,4.945,1.053,6.646,2.755c0.79,0.788,1.439,1.718,1.91,2.748c3.476-1.381,8.381-1.979,12.885-1.754       c3.722,0.186,7.233,0.945,9.568,2.302c0.476-1.249,1.21-2.369,2.138-3.296c1.7-1.703,4.052-2.755,6.647-2.755       s4.945,1.053,6.647,2.755c0.871,0.871,1.573,1.913,2.049,3.071c3.692-2.252,10.6-5.3,17.595-7.533       c6.703-2.14,13.568-3.571,17.922-2.911l-0.406,2.7c-3.912-0.595-10.339,0.772-16.694,2.803       c-7.483,2.391-14.758,5.646-17.746,7.713c0.023,0.265,0.034,0.532,0.034,0.801c0,2.596-1.052,4.948-2.753,6.648       c-1.702,1.701-4.052,2.752-6.647,2.752s-4.947-1.051-6.647-2.752c-1.701-1.7-2.753-4.052-2.753-6.648       c0-0.157,0.004-0.314,0.012-0.471c-1.683-1.452-5.206-2.266-9.092-2.46c-4.281-0.213-8.894,0.352-11.999,1.66       c0.056,0.416,0.085,0.841,0.085,1.271c0,2.596-1.052,4.948-2.754,6.648c-1.701,1.701-4.05,2.752-6.646,2.752       c-2.596,0-4.947-1.051-6.647-2.752c-1.701-1.7-2.754-4.052-2.754-6.648c0-0.404,0.025-0.804,0.076-1.197       c-3.44-2.071-10.566-5.074-17.882-7.313c-6.645-2.034-13.369-3.405-17.467-2.808L177.067,135.581L177.067,135.581z        M261.92,143.613c-1.653,0-3.15,0.67-4.233,1.753c-1.083,1.083-1.753,2.581-1.753,4.232c0,1.653,0.67,3.15,1.753,4.234       c1.083,1.084,2.58,1.753,4.233,1.753c1.653,0,3.15-0.67,4.233-1.753c1.083-1.084,1.753-2.581,1.753-4.234       c0-1.651-0.67-3.149-1.753-4.232C265.07,144.283,263.573,143.613,261.92,143.613z"
              id="path44"
            />
          </g>
          <g
            id="g46"
          >
            <path
              style="fill-rule: evenodd; clip-rule: evenodd; fill: #0f0e0e"
              d="M177.462,139.302c-0.375,0.019-0.696-0.27-0.714-0.646       c-0.02-0.375,0.27-0.696,0.645-0.715c7.213-0.394,13.412,1.859,14.913,2.403l0.215,0.08c7.538,2.637,20.45,7.665,20.487,7.68       c0.28,0.108,0.447,0.381,0.435,0.665c0,0.536,0.125,8.5,7.924,9.408c0.387,0.045,0.771,0.067,1.147,0.067       c2.249,0,4.115-0.822,5.477-2.183c1.376-1.376,2.253-3.309,2.509-5.513c0.052-0.444,0.079-0.904,0.079-1.376       c0-0.311,0.208-0.574,0.492-0.657c0.629-0.244,6.127-2.338,10.74-2.338c0.378,0,0.683,0.306,0.683,0.683       c0,0.376-0.305,0.682-0.683,0.682c-3.892,0-8.48,1.584-9.875,2.1c-0.013,0.357-0.04,0.711-0.081,1.061       c-0.292,2.51-1.306,4.727-2.903,6.325c-1.612,1.61-3.806,2.583-6.438,2.583c-0.419,0-0.853-0.026-1.301-0.077       c-8.061-0.941-9.006-8.363-9.116-10.324c-2.275-0.882-13.292-5.145-20.025-7.502l-0.231-0.082       C190.392,141.098,184.402,138.922,177.462,139.302z"
              id="path45"
            />
            <path
              style="fill-rule: evenodd; clip-rule: evenodd; fill: #0f0e0e"
              d="M305.877,138.014c0.375,0.021,0.662,0.345,0.641,0.72       c-0.022,0.375-0.345,0.661-0.721,0.639c-6.957-0.431-12.791,1.768-14.696,2.487c-0.191,0.072-0.347,0.131-0.444,0.166       c-6.737,2.389-16.756,6.263-19.062,7.159c0.197,2.254-0.246,4.177-1.123,5.731c-0.741,1.317-1.79,2.369-3.022,3.136       c-1.217,0.762-2.617,1.243-4.076,1.432c-2.243,0.288-4.626-0.121-6.695-1.286c-1.432-0.808-2.682-1.905-3.576-3.39       c-0.828-1.376-1.346-3.074-1.413-5.166c-1.396-0.519-5.984-2.1-9.876-2.1c-0.376,0-0.683-0.306-0.683-0.682       c0-0.377,0.307-0.683,0.683-0.683c4.613,0,10.113,2.094,10.741,2.338c0.284,0.083,0.492,0.346,0.492,0.657       c0,2.045,0.457,3.659,1.224,4.933c0.763,1.266,1.838,2.207,3.074,2.903c1.811,1.021,3.896,1.379,5.858,1.126       c1.261-0.162,2.474-0.58,3.528-1.238c1.042-0.649,1.928-1.537,2.552-2.645c0.806-1.432,1.184-3.241,0.908-5.403       c-0.051-0.312,0.12-0.626,0.427-0.745c0.034-0.013,11.998-4.671,19.586-7.364c0.12-0.042,0.254-0.092,0.417-0.154       C292.593,139.841,298.634,137.564,305.877,138.014z"
              id="path46"
            />
          </g>
        </g>
      </g>
      <g
        id="g118"
      >
        <path
          style="fill-rule: evenodd; clip-rule: evenodd; fill: #0f0e0e"
          d="M326.735,421.544c0.21-0.057,0.42-0.109,0.636-0.159     c0.59-0.139,1.165-0.122,1.746,0.049c8.998,2.656,20.735,8.776,23.499,18.478c0.869,3.045,0.853,6.25-0.995,8.948     c-4.931,7.198-19.234,5.141-26.562,3.642c-4.343-0.89-8.65-2.077-12.816-3.597c-4.015-1.465-7.847-3.362-11.689-5.219     c-2.94-1.42-7.665-3.412-9.669-5.98c-1.125-1.442-0.645-4.378-0.267-6.064c0.147-0.656,0.358-1.26,0.805-1.737     c-0.129-0.619-0.264-1.236-0.408-1.852c-0.277-1.184-0.563-2.364-0.859-3.543c-0.409-1.631-0.834-3.258-1.301-4.872     c-0.311-1.08-0.622-2.189-1.054-3.227c-1.792-4.311-3.535-8.641-5.25-12.983c-4.2,1.9-8.633,2.773-13.532,1.741     c-3.45-0.724-6.625-2.239-9.838-3.637c-2.776-1.209-5.777-2.08-8.8-2.349c-0.992-0.087-2.227-0.162-3.207-0.003     c-0.378,0.063-0.738,0.063-1.116,0.002c-0.981-0.161-2.217-0.086-3.21,0.001c-3.022,0.268-6.023,1.14-8.8,2.349     c-0.428,0.186-0.856,0.376-1.283,0.564v56.375c0,2.662-1.99,3.226-4.673,3.454c-3.092,0.262-7.025-0.041-8.593-0.041     c-1.882,0-3.415-1.533-3.415-3.413v-51.813c-1.3,3.261-2.619,6.512-3.967,9.753c-0.432,1.04-0.746,2.148-1.06,3.229     c-0.468,1.613-0.895,3.235-1.303,4.865c-0.144,0.579-0.286,1.159-0.426,1.738c-0.169,0.71-0.261,1.468-0.345,2.192     c-0.062,0.53-0.117,1.06-0.175,1.591c0.374,0.456,0.562,1.014,0.697,1.614c0.378,1.685,0.858,4.621-0.267,6.064     c-2.005,2.568-6.73,4.56-9.669,5.98c-3.843,1.857-7.674,3.754-11.689,5.219c-4.167,1.52-8.473,2.707-12.816,3.597     c-7.327,1.499-21.63,3.557-26.561-3.642c-1.847-2.698-1.863-5.903-0.996-8.948c2.765-9.701,14.502-15.821,23.5-18.478     c0.58-0.171,1.157-0.188,1.747-0.049c0.177,0.041,0.353,0.085,0.526,0.13c0.478-0.148,0.95-0.284,1.414-0.411     c0.747-0.206,1.5-0.394,2.256-0.563c2.344-0.532,4.643-1.255,6.979-1.822c-0.119-0.596-0.264-1.188-0.436-1.77     c-1.932-6.555-3.413-13.27-4.451-20.046c-1.408-0.333-2.766-0.914-4.041-1.851c-1.361-0.996-2.438-2.24-3.633-3.415     c-1.287-1.266-2.64-2.309-4.22-3.184c-1.981-1.098-3.107-1.378-5.323-0.826c-1.797,0.448-3.352,0.849-5.233,0.786     c-2.839-0.097-5.503-1.18-7.944-2.565c-3.265-1.853-6.175-4.626-6.214-8.642c-0.049-4.81,4.233-8.91,7.954-12.084     c0.738-10.6,2.386-21.171,4.491-31.57c3.078-15.204,6.681-30.347,11.081-45.241c-3.145,0.384-6.338,0.358-9.367-0.345     c-3.197-0.74-6.145-2.238-8.417-4.635c-0.162-0.17-0.309-0.353-0.431-0.545c-2.995-3.025-3.91-8.268-4.188-12.212     c-0.249-3.516-0.112-7.334,0.384-10.859c-0.763-0.188-1.488-0.546-2.086-1.024c-1.883-1.513-0.755-4.324-0.144-6.178     c5.96-18.108,14.932-36.744,30.771-48.209c4.877-3.529,10.15-6.195,15.739-8.331c0.239-0.211,0.494-0.406,0.764-0.583     c-0.001-0.041-0.001-0.082,0-0.124c0.011-1.159,0.143-2.313,0.34-3.455c0.024-0.14,0.029-0.285,0.023-0.426     c-0.018-0.441-0.142-0.904-0.276-1.322c-0.032-0.098-0.065-0.195-0.098-0.291c-0.071-0.145-0.127-0.294-0.167-0.445     c-0.243-0.629-0.523-1.252-0.769-1.875c-0.688-1.744-1.185-3.577-0.547-5.418c0.955-2.77,3.701-3.761,6.355-4.122     c0.727-0.097,1.417,0.026,2.064,0.373c13.155,7.013,30.93,8.987,45.667,8.674c1.144-0.023,2.304-0.063,3.479-0.117     c0.929-1.333,2.421-2.588,3.223-3.16c1.414-1.008,3.211-1.877,4.992-1.732c1.128,0.092,2.283,0.053,3.41-0.002     c1.541-0.076,3.079-0.217,4.611-0.403c2.395-0.292,5.084-0.664,7.367-1.447c3.273-1.123,6.662-1.314,9.912,0.005     c0.337,0.136,0.666,0.286,0.985,0.449c2.792-1.002,5.477-2.136,8.003-3.415c0.632-0.318,1.298-0.431,2-0.337     c2.664,0.362,5.275,1.42,6.367,4.08c1.159,2.821-0.15,5.688-0.935,8.402c-0.192,0.673-0.449,1.651-0.376,2.386     c1.654,0.482,3.307,0.968,4.953,1.476c10.621,3.282,19.326,7.267,27.636,14.824c12.11,11.012,20.5,27.021,26.81,41.935     c0.33,0.777,0.635,2.939,0.396,3.733c-0.308,1.017-1.552,1.486-2.465,1.8c-0.152,0.053-0.307,0.102-0.462,0.15     c0.201,1.159,0.394,2.319,0.574,3.482c0.572,3.703,0.744,7.775,0.479,11.507c-0.279,3.944-1.192,9.187-4.188,12.212     c-0.122,0.192-0.271,0.375-0.431,0.545c-2.273,2.396-5.222,3.895-8.418,4.635c-3.998,0.928-8.281,0.678-12.363-0.141     c4.463,15.052,8.109,30.358,11.221,45.727c2.106,10.406,3.747,20.973,4.49,31.577c0.385,0.329,0.768,0.662,1.147,0.998     c3.138,2.793,6.853,6.572,6.809,11.079c-0.04,4.016-2.95,6.789-6.215,8.642c-2.442,1.386-5.105,2.469-7.944,2.565     c-1.882,0.063-3.435-0.338-5.233-0.786c-2.216-0.552-3.342-0.272-5.322,0.826c-1.581,0.875-2.935,1.918-4.221,3.184     c-0.103,0.101-0.204,0.203-0.306,0.305c-1.022,8.457-2.729,16.855-5.132,25.007c-0.172,0.582-0.316,1.174-0.434,1.77     c2.335,0.567,4.634,1.29,6.978,1.822c0.756,0.169,1.507,0.357,2.254,0.563C325.721,421.238,326.225,421.386,326.735,421.544z"
          id="path48"
        />
        <path
          style="fill-rule: evenodd; clip-rule: evenodd; fill: #0f0e0e"
          d="M347.474,247.276c-3.984-1.236-9.046-1.054-13.163-0.639     c-3.863,0.388-7.733,1.073-11.522,1.912c-1.753,0.391-3.533,0.811-5.261,1.3c-0.68,0.192-1.175,0.67-1.392,1.341     s-0.096,1.348,0.341,1.901c4.128,5.22,8.549,10.405,13.054,15.296c3.006,3.263,6.247,6.644,9.678,9.46     c2.067,1.697,3.554,6.697,6.388,5.28c6.648-3.322,6.068-17.656,5.108-23.851c-0.538-3.483-1.191-6.943-1.822-10.41     C348.742,248.097,348.221,247.509,347.474,247.276z"
          id="path49"
        />
        <path
          style="fill-rule: evenodd; clip-rule: evenodd; fill: #d17f59"
          d="M346.866,249.233c1.941,10.672,3.892,27.85-1.283,30.438     c-5.175,2.587-27.498-27.85-27.498-27.85S337.488,246.322,346.866,249.233z"
          id="path50"
        />
        <path
          style="fill-rule: evenodd; clip-rule: evenodd; fill: #0f0e0e"
          d="M314.426,419.799c0.43,0.094,0.949,0.174,1.234,0.244     c2.344,0.568,4.663,1.297,7.011,1.828c0.735,0.167,1.467,0.35,2.193,0.548c8.608,2.361,20.511,8.397,23.164,17.704     c0.828,2.905,1.066,6.264-1.075,8.688c-2.509,2.838-7.055,2.925-10.533,2.595c-4.569-0.434-9.357-1.736-13.736-3.097     c-3.535-1.095-7.025-2.329-10.501-3.599c-2.226-0.813-4.454-1.625-6.666-2.475c-1.636-0.627-3.278-1.276-4.87-2.01     c-2.155-0.992-4.475-2.239-5.911-4.188c-0.321-0.435-0.599-0.887-0.817-1.385c-0.358-0.82-0.519-1.705-0.681-2.581     c-0.27-1.455-0.554-2.889-0.893-4.329c-0.278-1.191-0.565-2.379-0.863-3.566c-0.413-1.644-0.843-3.287-1.313-4.917     c-0.319-1.104-0.664-2.311-1.105-3.372c-1.836-4.414-3.619-8.851-5.375-13.297c-4.884-12.376-9.606-24.86-14.147-37.366     c-0.196-0.543-0.168-1.081,0.086-1.599c0.252-0.519,0.659-0.872,1.208-1.05l45.922-14.875c0.587-0.19,1.167-0.124,1.694,0.196     c0.527,0.319,0.855,0.802,0.957,1.411c3.705,21.918,1.992,45.935-4.291,67.255C314.808,417.616,314.577,418.708,314.426,419.799z     "
          id="path51"
        />
        <path
          style="fill-rule: evenodd; clip-rule: evenodd; fill: #e9bc9d"
          d="M317.389,349.648c4.306,25.479,0.647,49.764-4.236,66.336     c-0.435,1.477-0.69,2.912-0.825,4.088c-0.189,1.64,1.083,1.532,2.85,1.961c2.201,0.534,5.171,1.412,7.041,1.834     c11.105,2.515,21.638,9.089,23.841,16.816c4.306,15.109-18.982,7.288-33.173,2.104c-10.249-3.746-14.604-5.392-16.502-7.966     c-1.152-1.563-0.785-2.169-2.044-7.546c-1.037-4.43-2.474-9.981-3.385-12.174c-8.93-21.478-19.488-50.578-19.488-50.578     L317.389,349.648z"
          id="path52"
        />
        <path
          style="fill-rule: evenodd; clip-rule: evenodd; fill: #0f0e0e"
          d="M205.383,436.775c-0.67,0.824-1.884,1.448-2.708,1.896     c-1.755,0.952-3.591,1.811-5.412,2.627c-5.259,2.357-10.74,4.46-16.229,6.218c-5.164,1.655-10.87,3.202-16.279,3.698     c-3.873,0.354-9.261,0.303-11.928-3.044c-1.851-2.323-1.706-5.337-0.935-8.047c2.653-9.307,14.556-15.343,23.163-17.704     c0.727-0.197,1.459-0.381,2.195-0.548c2.347-0.531,4.667-1.26,7.01-1.828c0.285-0.07,0.805-0.15,1.234-0.244     c-0.151-1.091-0.381-2.183-0.691-3.236c-6.284-21.32-7.996-45.337-4.291-67.255c0.104-0.609,0.43-1.092,0.959-1.411     c0.526-0.32,1.107-0.387,1.693-0.196l45.922,14.875c0.548,0.178,0.955,0.531,1.208,1.05c0.254,0.518,0.283,1.056,0.085,1.599     c-4.54,12.506-9.263,24.99-14.148,37.365c-1.756,4.447-3.538,8.884-5.374,13.298c-0.442,1.065-0.79,2.267-1.111,3.374     c-0.473,1.627-0.903,3.27-1.315,4.912c-0.145,0.583-0.289,1.169-0.428,1.753C207.29,428.896,207.546,434.523,205.383,436.775z"
          id="path53"
        />
        <path
          style="fill-rule: evenodd; clip-rule: evenodd; fill: #e9bc9d"
          d="M182.532,349.648c-4.306,25.479-0.647,49.764,4.236,66.336     c0.434,1.477,0.69,2.912,0.826,4.088c0.188,1.64-1.083,1.532-2.85,1.961c-2.202,0.534-5.171,1.412-7.042,1.834     c-11.104,2.515-21.636,9.089-23.84,16.816c-6.05,21.23,49.215-3.151,49.98-5.267c1.559-1.431,1.438-6.934,2.167-9.971     c0.967-4.028,2.166-8.446,2.956-10.345c8.93-21.478,19.488-50.578,19.488-50.578L182.532,349.648z"
          id="path54"
        />
        <path
          style="fill-rule: evenodd; clip-rule: evenodd; fill: #d17f59"
          d="M196.011,398.519c4.335,1.204,10.116,5.059,8.429,11.802     c-1.384,5.537-1.469,15.132-4.653,21.188c0.032-0.013,0.065-0.027,0.097-0.041c0.379-0.155,0.766-0.295,1.157-0.419     c1.198-0.382,2.819-0.736,4.268-0.577c0.216-1.775,0.371-3.651,0.702-5.025c0.967-4.028,2.166-8.446,2.956-10.345     c1.58-3.801,3.212-7.84,4.826-11.915c-2.752-0.911-5.385-2.347-7.966-4.044c-2.142-1.407-4.448-2.961-6.739-4.107     c-1.048-0.524-2.157-0.99-3.344-1.037c-1.064-0.041-2.25,0.22-3.288,0.436c-2.037,0.424-4.033,0.835-6.096,1.141     c-1.334,0.198-2.677,0.341-3.997,0.333c0.156,1.04,0.322,2.067,0.494,3.082C188.522,399.327,192.844,397.638,196.011,398.519z"
          id="path55"
        />
        <path
          style="fill-rule: evenodd; clip-rule: evenodd; fill: #d17f59"
          d="M285.098,400.575c1.946,4.951,3.939,9.914,5.857,14.526     c0.911,2.192,2.348,7.744,3.385,12.174c0.298,1.273,0.506,2.28,0.663,3.094c1.367-0.233,2.911,0.188,4.145,0.696     c0.25,0.103,0.499,0.208,0.748,0.315c-3.119-6.063-3.213-15.562-4.587-21.061c-1.687-6.743,4.095-10.598,8.431-11.802     c3.198-0.889,7.576,0.845,13.328,0.461c0.3-1.757,0.575-3.554,0.823-5.389c-0.152,0.123-0.308,0.244-0.467,0.359     c-3.135,2.299-6.877,2.173-10.553,1.626c-2.061-0.306-4.058-0.717-6.095-1.141c-1.038-0.217-2.225-0.477-3.289-0.436     c-1.185,0.047-2.294,0.513-3.343,1.037c-2.291,1.146-4.598,2.699-6.739,4.107C286.642,399.646,285.873,400.125,285.098,400.575z"
          id="path56"
        />
        <path
          style="fill-rule: evenodd; clip-rule: evenodd; fill: #0f0e0e"
          d="M289.2,191.488c3.314,1.008,6.653,1.939,9.963,2.961     c10.448,3.226,18.919,7.071,27.12,14.528c11.932,10.85,20.271,26.802,26.471,41.456c0.186,0.438,0.484,2.351,0.346,2.806     c-0.201,0.667-3.368,1.412-3.378,1.409c-0.556-0.139-1.052-1.841-1.609-1.969c-1.977-0.463-3.97-0.863-5.973-1.197     c-5.918-0.995-12.129-1.489-18.119-1.012c-4.29,0.342-8.309,1.579-12.441,2.668c-3.12,0.82-7.396,1.938-10.358,0.142     c-0.418-0.254-0.802-0.56-1.144-0.909L247.679,198.9l41.044-7.557L289.2,191.488z"
          id="path57"
        />
        <path
          style="fill-rule: evenodd; clip-rule: evenodd; fill: #cd591c"
          d="M288.604,193.448c21.585,6.561,41.694,9.175,62.263,57.784     c0.023,0.055-13.408-3.888-27.01-2.803c-9.952,0.793-18.739,6.16-22.317,2.509l-49.703-50.722L288.604,193.448z"
          id="path58"
        />
        <path
          style="fill-rule: evenodd; clip-rule: evenodd; fill: #0f0e0e"
          d="M148.615,247.276c3.984-1.236,9.046-1.054,13.164-0.639     c3.862,0.388,7.732,1.073,11.521,1.912c1.753,0.391,3.534,0.811,5.262,1.3c0.678,0.192,1.174,0.67,1.39,1.341     c0.218,0.671,0.096,1.348-0.341,1.901c-4.126,5.22-8.547,10.405-13.053,15.296c-3.005,3.263-6.247,6.644-9.678,9.46     c-2.067,1.697-3.554,6.697-6.387,5.28c-6.646-3.322-6.068-17.656-5.108-23.851c0.539-3.483,1.192-6.943,1.823-10.41     C147.346,248.097,147.867,247.509,148.615,247.276z"
          id="path59"
        />
        <path
          style="fill-rule: evenodd; clip-rule: evenodd; fill: #d17f59"
          d="M149.221,249.233c-1.941,10.672-3.891,27.85,1.284,30.438     c5.174,2.587,27.498-27.85,27.498-27.85S158.6,246.322,149.221,249.233z"
          id="path60"
        />
        <path
          style="fill-rule: evenodd; clip-rule: evenodd; fill: #0f0e0e"
          d="M149.34,249.341c-1.124,6.199-2.245,14.564-1.974,20.985     c0.193,4.585,1.091,8.17,3.199,9.223c4.866,2.433,25.496-25.326,27.212-27.65C175.772,251.349,158.18,246.658,149.34,249.341     L149.34,249.341z M147.095,270.337c-0.273-6.473,0.861-14.905,1.993-21.127l0.015-0.082l0.079-0.024     c9.417-2.922,28.802,2.57,28.859,2.585l0.19,0.054l-0.117,0.159c-0.065,0.087-22.391,30.53-27.669,27.891     C148.23,278.685,147.291,275.018,147.095,270.337z"
          id="path61"
        />
        <path
          style="fill-rule: evenodd; clip-rule: evenodd; fill: #0f0e0e"
          d="M210.526,190.465l-14.109,62.705l-1.816-0.195     c-3.4-0.364-7.001-0.476-10.415-0.55c-9.343-0.2-18.755,0.192-28.062,1.01c-2.511,0.221-4.802,0.928-7.079,1.981     c-0.761,0.353-2.043,2.494-2.803,2.842c-1.059,0.484-2.512,0.188-3.535-0.633c-1.159-0.93-0.105-3.462,0.297-4.686     c5.861-17.805,14.691-36.246,30.276-47.529c5.314-3.847,11.04-6.611,17.199-8.815c5.489-1.965,11.11-3.413,16.681-5.106     L210.526,190.465z"
          id="path62"
        />
        <path
          style="fill-rule: evenodd; clip-rule: evenodd; fill: #cd591c"
          d="M207.756,193.448c-21.587,6.561-46.211,9.717-62.805,60.132     c-1.249,3.79,2.773-1.465,10.993-2.188c23.751-2.085,38.876-0.454,38.876-0.454L207.756,193.448z"
          id="path63"
        />
        <path
          style="fill-rule: evenodd; clip-rule: evenodd; fill: #0f0e0e"
          d="M154.569,362.648h184.093c0.825,0,1.57,0.271,2.201,0.804     c1.05,0.884,2.104,1.763,3.129,2.675c3.138,2.793,6.853,6.572,6.809,11.079c-0.04,4.016-2.95,6.789-6.215,8.642     c-2.442,1.386-5.105,2.469-7.944,2.565c-1.882,0.063-3.435-0.338-5.233-0.786c-2.216-0.552-3.342-0.272-5.322,0.826     c-1.581,0.875-2.935,1.918-4.221,3.184c-1.193,1.175-2.272,2.419-3.633,3.415c-3.455,2.535-7.51,2.477-11.561,1.875     c-2.073-0.307-4.123-0.729-6.174-1.156c-0.922-0.19-2.013-0.443-2.957-0.406c-0.966,0.037-1.93,0.465-2.785,0.893     c-2.293,1.147-4.459,2.62-6.6,4.028c-5.873,3.859-12.012,6.384-19.137,4.884c-3.45-0.724-6.625-2.239-9.838-3.637     c-2.776-1.209-5.777-2.08-8.8-2.349c-0.992-0.087-2.227-0.162-3.207-0.003c-0.378,0.063-0.738,0.063-1.116,0.002     c-0.981-0.161-2.217-0.086-3.21,0.001c-3.022,0.268-6.023,1.14-8.8,2.349c-3.212,1.397-6.387,2.913-9.836,3.637     c-7.125,1.5-13.264-1.024-19.138-4.884c-2.141-1.408-4.307-2.881-6.6-4.028c-0.854-0.428-1.818-0.855-2.786-0.893     c-0.942-0.037-2.033,0.216-2.957,0.406c-2.05,0.428-4.101,0.85-6.173,1.156c-4.051,0.602-8.105,0.66-11.56-1.875     c-1.361-0.996-2.438-2.24-3.633-3.415c-1.287-1.266-2.64-2.309-4.22-3.184c-1.981-1.098-3.107-1.378-5.323-0.826     c-1.797,0.448-3.352,0.849-5.233,0.786c-2.839-0.097-5.503-1.18-7.944-2.565c-3.265-1.853-6.175-4.626-6.214-8.642     c-0.057-5.7,5.969-10.408,9.938-13.754C153,362.92,153.745,362.648,154.569,362.648z"
          id="path64"
        />
        <path
          style="fill-rule: evenodd; clip-rule: evenodd; fill: #0f0e0e"
          d="M154.569,364.014h184.093c0.504,0,0.936,0.158,1.321,0.481     c1.04,0.879,2.085,1.748,3.102,2.653c2.785,2.478,6.391,6.032,6.35,10.045c-0.034,3.484-2.709,5.87-5.522,7.467     c-2.239,1.271-4.71,2.298-7.316,2.388c-1.782,0.06-3.167-0.326-4.857-0.745c-2.53-0.63-3.996-0.329-6.314,0.953     c-1.714,0.95-3.126,2.039-4.517,3.408c-1.138,1.116-2.192,2.34-3.484,3.286c-3.135,2.299-6.877,2.173-10.553,1.626     c-2.061-0.306-4.058-0.717-6.095-1.141c-1.038-0.217-2.225-0.477-3.289-0.436c-1.185,0.047-2.294,0.513-3.343,1.037     c-2.291,1.146-4.598,2.699-6.739,4.107c-5.565,3.659-11.368,6.108-18.106,4.691c-3.331-0.701-6.467-2.203-9.572-3.554     c-2.906-1.267-6.059-2.175-9.224-2.458c-1.051-0.092-2.493-0.159-3.547,0.012c-0.238,0.04-0.444,0.04-0.677,0.002     c-1.056-0.173-2.498-0.105-3.549-0.014c-3.166,0.283-6.317,1.191-9.224,2.458c-3.107,1.351-6.242,2.853-9.574,3.554     c-6.736,1.417-12.539-1.032-18.105-4.691c-2.142-1.407-4.448-2.961-6.739-4.107c-1.048-0.524-2.157-0.99-3.344-1.037     c-1.064-0.041-2.25,0.22-3.288,0.436c-2.037,0.424-4.033,0.835-6.096,1.141c-3.674,0.547-7.417,0.673-10.55-1.626     c-1.291-0.946-2.348-2.17-3.484-3.286c-1.391-1.369-2.803-2.458-4.517-3.408c-2.317-1.282-3.784-1.583-6.314-0.953     c-1.69,0.419-3.075,0.806-4.858,0.745c-2.605-0.09-5.076-1.116-7.316-2.388c-2.814-1.597-5.489-3.982-5.523-7.467     c-0.051-5.086,5.854-9.663,9.453-12.698C153.634,364.172,154.066,364.014,154.569,364.014z"
          id="path65"
        />
        <path
          style="fill-rule: evenodd; clip-rule: evenodd; fill: #e6ad3f"
          d="M154.569,366.061c-5.752,4.851-13.928,11.319-4.239,16.816     c9.689,5.498,10.295-1.939,18.47,2.587c8.174,4.528,6.358,9.703,17.258,8.085c10.9-1.616,9.084-3.88,20.893,3.883     c11.809,7.76,17.561,4.526,25.737,0.969c8.175-3.558,13.927-2.587,13.927-2.587s5.754-0.971,13.929,2.587     c8.176,3.558,13.928,6.791,25.737-0.969c11.808-7.763,9.991-5.499,20.892-3.883c10.9,1.618,9.084-3.557,17.259-8.085     c8.175-4.526,8.781,2.911,18.47-2.587c9.688-5.497,1.515-11.966-4.239-16.816H154.569z"
          id="path66"
        />
        <path
          style="fill-rule: evenodd; clip-rule: evenodd; fill: #0f0e0e"
          d="M337.018,333.821c2.174,10.743,3.867,21.798,4.555,32.746     c0.472,7.522-6.359,9.725-12.387,12.213c-8.711,3.594-37.723,7.557-76.733,7.841c-43.488,0.316-97.546-5.507-100.491-15.714     c-0.31-1.078-0.425-2.19-0.363-3.309c0.636-11.281,2.378-22.715,4.618-33.777c4.447-21.969,10.036-43.959,17.514-65.103     c4.517-12.768,9.85-25.625,16.368-37.646c1.673-3.082,1.256,7.979,3.091,5.02c10.988-17.714,28.997-42.012,51.755-42.012     c22.749-0.002,37.07,15.422,48.053,33.128c0.874,1.408,6.608,5.857,7.163,3.644c0.532-2.13,1.063-1.564,1.448-0.881     c7.218,12.798,13.026,24.966,17.889,38.711C326.977,289.838,332.567,311.841,337.018,333.821z"
          id="path67"
        />
        <path
          style="fill-rule: evenodd; clip-rule: evenodd; fill: #cd591c"
          d="M335.01,334.228c2.917,14.416,4.074,25.392,4.518,32.467     c1.555,24.746-187.044,21.584-185.885,1.021c0.396-7.02,1.518-18.361,4.58-33.488c10.642-52.571,25.31-91.167,41.861-115.772     c0.553-0.823-10.452-14.879-9.895-15.671c11.004-15.619,32.629,4.536,45.625,2.287     C276.437,198.04,313.021,225.611,335.01,334.228z"
          id="path68"
        />
        <g
          id="g70"
        >
          <path
            style="fill-rule: evenodd; clip-rule: evenodd; fill: #a74618"
            d="M225.317,383.674c-38.678-1.674-72.164-7.259-71.674-15.958      c0.396-7.02,1.518-18.361,4.58-33.488c4.107-20.291,8.816-38.501,14.001-54.628c5.374-0.906,9.494-1.332,9.494-1.332      c-17.825,44.802-19.271,92.012,24.087,101.165C213.301,381.016,219.759,382.424,225.317,383.674z"
            id="path69"
          />
          <path
            style="fill-rule: evenodd; clip-rule: evenodd; fill: #a74618"
            d="M335.01,334.228c2.917,14.416,4.074,25.392,4.518,32.467      c0.684,10.872-35.34,16.355-75.846,17.345c5.91-1.338,12.892-2.867,21.128-4.607c43.357-9.153,41.912-56.363,24.088-101.165      c0,0,5.344,0.552,11.8,1.738C325.962,295.28,330.76,313.232,335.01,334.228z"
            id="path70"
          />
        </g>
        <path
          style="fill-rule: evenodd; clip-rule: evenodd; fill: #a74618"
          d="M168.53,291.723c2.369-8.208,4.854-15.938,7.441-23.191     c8.302-6.544,16.352-10.908,19.071-11.525c5.3-1.204,38.541,2.408,48.175,2.408c9.636,0,67.927,6.264,70.817,6.984     c0.425,0.108,1.357,0.797,2.603,1.891c2.982,8.028,5.804,16.567,8.449,25.58c-15.423-5.457-42.849-22.171-42.849-22.171     l-3.612,1.928l-6.986-4.577l-32.277-3.13l-13.971,13.729l-9.876-8.431c0,0-2.168,1.927-14.694,8.67     C190.909,285.228,182.654,290.565,168.53,291.723z"
          id="path71"
        />
        <path
          style="fill-rule: evenodd; clip-rule: evenodd; fill: #a74618"
          d="M190.745,206.297c2.031-2.778,16.492,2.473,18.57,0.111     l70.034,4.108l13.007,37.335c0,0-27.701,4.577-27.219,2.891c0.306-1.067,0.61-10.542,0.794-17.347     c0.37-13.796-11.539-3.79-35.48-7.221C212.346,223.579,186.848,211.626,190.745,206.297z"
          id="path72"
        />
        <path
          style="fill-rule: evenodd; clip-rule: evenodd; fill: #0f0e0e"
          d="M217.452,458.471V312.772c0-1.032-0.076-2.086-0.136-3.117     c-0.616-10.617-0.738-21.311,1.752-31.729c1.053-4.405,2.594-8.746,4.849-12.685c1.169-2.041,2.573-3.947,4.149-5.69     c4.232-4.682,9.771-8.089,15.975-9.38c7.185-1.5,14.227-0.031,20.551,3.59c2.544,1.457,4.901,3.242,7.075,5.207     c3.545,3.204,6.15,7.127,7.906,11.559c1.857,4.686,2.687,9.73,2.853,14.751c0.018,0.564-0.167,1.057-0.553,1.469     c-0.387,0.412-0.865,0.629-1.431,0.647l-9.814,0.308c-1.126,0.035-2.074-0.853-2.111-1.98c-0.111-3.389-0.618-6.899-1.872-10.066     c-0.964-2.43-2.358-4.612-4.307-6.373c-1.435-1.297-2.992-2.46-4.672-3.422c-3.298-1.889-7.014-2.844-10.79-2.057     c-3.311,0.689-6.247,2.587-8.498,5.077c-0.906,1.002-1.693,2.115-2.364,3.286c-5.774,10.082-5.449,25.462-4.796,36.714     c0.075,1.28,0.182,2.615,0.182,3.894v145.698c0,1.128-0.92,2.047-2.048,2.047H219.5     C218.372,460.518,217.452,459.599,217.452,458.471z"
          id="path73"
        />
        <path
          style="fill-rule: evenodd; clip-rule: evenodd; fill: #7c6052"
          d="M219.5,458.471V312.772c0-0.834-0.061-1.89-0.139-3.235     c-0.528-9.088-1.698-29.257,6.333-43.277c1.063-1.857,2.371-3.653,3.891-5.335c3.877-4.289,9.012-7.528,14.874-8.751     c5.917-1.233,12.479-0.436,19.114,3.363c2.203,1.264,4.449,2.898,6.72,4.951c3.409,3.081,5.785,6.776,7.377,10.792     c1.768,4.463,2.551,9.286,2.708,14.064l-9.813,0.308c-0.125-3.745-0.708-7.451-2.017-10.754     c-1.067-2.694-2.628-5.141-4.836-7.138c-1.652-1.493-3.334-2.71-5.027-3.68c-4.365-2.499-8.545-3.053-12.225-2.285     c-3.737,0.779-7.057,2.895-9.602,5.71c-0.974,1.075-1.855,2.303-2.622,3.641c-6.591,11.51-5.538,29.668-5.063,37.851     c0.1,1.716,0.178,3.063,0.178,3.775v145.698H219.5z"
          id="path74"
        />
        <path
          style="fill-rule: evenodd; clip-rule: evenodd; fill: #0f0e0e"
          d="M274.174,287.112c0.006,0.376-0.293,0.686-0.668,0.692     c-0.375,0.01-0.686-0.291-0.692-0.666c-0.12-5.5-1.945-10.632-5.132-14.615c-3.052-3.816-7.361-6.582-12.626-7.611     c-1.17-0.229-2.378-0.405-3.595-0.515c-4.795-0.431-9.988,0.122-14.301,2.481c-4.275,2.339-7.701,6.486-9.029,13.266     c-0.198,1.017-0.35,2.079-0.449,3.187c-1.683,18.755-0.002,177.002,0.003,177.457c0.003,0.376-0.299,0.682-0.675,0.686     c-0.376,0.004-0.683-0.299-0.686-0.675c-0.004-0.456-1.686-158.765,0.003-177.586c0.105-1.184,0.262-2.293,0.466-3.329     c1.415-7.235,5.105-11.677,9.717-14.2c4.575-2.504,10.04-3.093,15.067-2.641c1.297,0.115,2.55,0.298,3.74,0.53     c5.592,1.095,10.175,4.039,13.426,8.103C272.116,275.892,274.047,281.311,274.174,287.112z"
          id="path75"
        />
        <path
          style="fill-rule: evenodd; clip-rule: evenodd; fill: #0f0e0e"
          d="M241.735,275.974c-0.818,1.654-2.284,2.719-4.211,2.843     c-1.356,0.088-2.659-0.485-3.785-1.24c-0.018,0.048-0.038,0.094-0.058,0.14c-0.507,1.142-1.691,1.784-2.925,1.587     c-0.421-0.066-0.841-0.145-1.259-0.234c-3.759-0.805-8.047-3.87-10.738-6.561l-4.674-4.674c-2.466,1.379-4.965,2.697-7.474,3.998     c-6.768,3.508-13.661,6.799-20.718,9.686c-4.313,1.765-8.696,3.385-13.174,4.679c-5.063,1.464-10.779,2.309-15.977,1.105     c-3.064-0.71-5.896-2.142-8.075-4.439c-0.382-0.403-0.729-0.923-0.538-1.505c0.417-1.262,2.82-0.931,3.294-2.99     c0.354-1.535,0.432-3.269,0.454-4.843c0.024-1.839-0.056-3.668-0.115-5.505c-0.019-0.614-0.044-1.248-0.018-1.862     c0.022-0.5,0.088-1.169,0.699-1.294c0.086-0.017,0.177-0.02,0.265-0.005c0.568,0.091,0.892,0.657,1.086,1.295     c-0.041-0.283-0.08-0.567-0.121-0.851c-0.151-1.08-0.412-2.679-0.3-3.752c1.703-16.384,28.704-21.224,41.928-22.725     c11.995-1.359,25.718-1.781,37.241,2.261c8.612,3.021,15.544,8.462,18.149,17.524c0.885,3.079,0.901,6.266,0.16,9.375     c-0.109,0.456-0.31,0.84-0.622,1.189c-0.72,0.805-1.677,1.156-2.701,1.208c-0.209,2.086-1.166,4.032-3.11,5.043     C243.574,275.865,242.665,276.043,241.735,275.974L241.735,275.974z M154.247,269.301c0.085,1.106,0.126,2.226,0.167,3.322     c0.024,0.655,0.07,3.185,0.196,4.964c0.365-2.193-0.006-5.426-0.186-6.915C154.369,270.213,154.31,269.758,154.247,269.301z"
          id="path76"
        />
        <path
          style="fill-rule: evenodd; clip-rule: evenodd; fill: #0f0e0e"
          d="M246.889,269.693c-0.05,2.092-0.866,4.132-2.782,5.127     c-0.917,0.475-1.869,0.575-2.788,0.414c-0.616,1.566-1.878,2.773-3.839,2.9c-1.451,0.094-2.9-0.715-4.135-1.694     c-0.058,0.358-0.151,0.693-0.288,0.999c-0.381,0.858-1.263,1.337-2.192,1.189c-0.41-0.065-0.817-0.141-1.224-0.229     c-3.617-0.775-7.813-3.79-10.398-6.374l-5.04-5.041c-2.602,1.465-5.262,2.871-7.904,4.241c-6.738,3.49-13.638,6.786-20.662,9.659     c-4.281,1.752-8.661,3.371-13.105,4.656c-4.937,1.425-10.557,2.273-15.632,1.094c-2.993-0.693-5.682-2.077-7.735-4.245     c-1.648-1.735,2.247-0.907,2.928-3.872c1.069-4.645-0.088-13.083,0.512-12.986c1.678,0.269,0.743,15.804,1.967,14.127     c2.357-3.229-0.802-15.258-0.514-18.038c1.499-14.429,23.77-20.124,41.325-22.114c11.897-1.351,25.57-1.765,36.938,2.224     c8.153,2.86,15.096,8.049,17.719,17.069c0.825,2.975,0.866,6.026,0.151,9.028c-0.083,0.347-0.229,0.625-0.466,0.892     C248.993,269.535,247.963,269.77,246.889,269.693z"
          id="path77"
        />
        <path
          style="fill-rule: evenodd; clip-rule: evenodd; fill: #e9bc9d"
          d="M239.076,247.164c6.575,5.112,11.046,12.11,9.121,20.188     c-0.851,0.951-3.898-0.559-3.898-0.559c1.712,3.927-0.678,8.515-4.605,5.474c0,0,0.348,3.65-2.346,3.823     c-2.693,0.174-7.645-6.602-7.645-6.602s2.366,5.139,1.485,7.117c-0.369-0.058-0.74-0.126-1.118-0.208     c-4.526-0.971-9.378-5.821-9.378-5.821l-6.145-6.143c0,0-23.837,13.721-42.584,19.14c-31.952,9.235-29.175-23.544-3.392-35.148     C192.588,237.611,228.595,239.013,239.076,247.164z"
          id="path78"
        />
        <path
          style="fill-rule: evenodd; clip-rule: evenodd; fill: #0f0e0e"
          d="M223.236,263.683c-0.417-0.379-0.448-1.025-0.068-1.443     c0.38-0.419,1.027-0.447,1.445-0.068c8.179,7.436,9.513,13.146,9.517,13.161c0.132,0.55-0.204,1.101-0.753,1.233     c-0.547,0.134-1.099-0.202-1.232-0.752C232.142,275.8,230.954,270.698,223.236,263.683z"
          id="path79"
        />
        <path
          style="fill-rule: evenodd; clip-rule: evenodd; fill: #0f0e0e"
          d="M230.643,262.237c-0.418-0.378-0.448-1.025-0.068-1.444     c0.381-0.415,1.027-0.446,1.444-0.066c8.18,7.436,9.514,13.145,9.518,13.16c0.132,0.549-0.205,1.102-0.752,1.233     c-0.547,0.133-1.1-0.204-1.232-0.752C239.548,274.353,238.36,269.254,230.643,262.237z"
          id="path80"
        />
        <path
          style="fill-rule: evenodd; clip-rule: evenodd; fill: #0f0e0e"
          d="M234.798,255.915c-0.417-0.381-0.448-1.026-0.068-1.443     c0.379-0.419,1.026-0.449,1.444-0.068c8.155,7.415,10.399,14.981,10.405,15.002c0.163,0.54-0.141,1.109-0.68,1.272     c-0.54,0.163-1.109-0.141-1.273-0.679C244.62,269.978,242.54,262.953,234.798,255.915z"
          id="path81"
        />
        <path
          style="fill-rule: evenodd; clip-rule: evenodd; fill: #0f0e0e"
          d="M189.6,189.502c-0.064-0.126-0.112-0.256-0.144-0.388     c-0.84-2.195-2.148-4.473-1.324-6.859c0.861-2.496,3.423-3.343,5.802-3.665c0.585-0.08,1.13,0.018,1.652,0.295     c13.265,7.074,31.14,9.072,46.001,8.756c14.977-0.318,32.824-3.092,46.276-9.895c0.51-0.258,1.036-0.345,1.6-0.268     c2.407,0.326,4.835,1.245,5.827,3.66c1.078,2.623-0.23,5.432-0.958,7.955c-0.242,0.841-0.524,1.96-0.373,2.833     c0.19,1.105,0.319,2.224,0.33,3.346c0.002,0.165-0.004,0.33-0.012,0.496c0.036,0.02,0.07,0.041,0.105,0.061     c2.379,1.409,3.509,4.409,3.44,7.074c-0.093,3.577-2.132,6.515-5.106,8.378c-12.354,7.738-36.201,12.389-50.742,12.389     c-14.54,0-38.386-4.65-50.741-12.389c-2.974-1.863-5.014-4.8-5.106-8.378c-0.069-2.665,1.063-5.665,3.44-7.074     c0.035-0.02,0.07-0.042,0.106-0.061c-0.007-0.166-0.013-0.33-0.011-0.496c0.011-1.122,0.139-2.24,0.33-3.346     c0.033-0.189,0.04-0.38,0.033-0.573c-0.022-0.504-0.154-1.02-0.309-1.499C189.681,189.735,189.641,189.619,189.6,189.502z"
          id="path82"
        />
        <g
          id="g89"
        >
          <path
            style="fill-rule: evenodd; clip-rule: evenodd; fill: #0f0e0e"
            d="M293.581,196.147c0.16,0.1,0.332,0.195,0.455,0.268      c2.162,1.28,3.169,4.058,3.107,6.469c-0.087,3.345-2.006,6.076-4.786,7.816c-12.19,7.636-36.011,12.284-50.379,12.284      c-14.367,0-38.188-4.648-50.377-12.284c-2.781-1.741-4.701-4.472-4.787-7.816c-0.063-2.411,0.943-5.189,3.105-6.469      c0.123-0.073,0.295-0.168,0.455-0.268c-0.007-0.29-0.029-0.6-0.027-0.869c0.01-1.085,0.137-2.167,0.321-3.237      c0.04-0.236,0.052-0.477,0.041-0.716c-0.025-0.567-0.167-1.143-0.341-1.681c-0.712-2.214-2.408-4.798-1.59-7.167      c0.767-2.22,3.154-2.929,5.249-3.213c0.444-0.059,0.843,0.013,1.238,0.223c13.361,7.123,31.394,9.153,46.339,8.836      c15.01-0.318,33.063-3.138,46.57-9.968c0.386-0.195,0.77-0.259,1.199-0.203c2.147,0.292,4.396,1.076,5.287,3.244      c0.981,2.387-0.314,5.189-0.983,7.507c-0.275,0.953-0.561,2.144-0.391,3.138c0.185,1.07,0.311,2.152,0.321,3.237      C293.611,195.547,293.59,195.857,293.581,196.147z"
            id="path83"
          />
          <path
            style="fill-rule: evenodd; clip-rule: evenodd; fill: #e6ad3f"
            d="M194.301,181.295c-7.761,1.052-0.753,6.096-1.615,11.096      c-0.863,5,0.718,4.341-1.725,5.788c-2.443,1.448-3.736,7.367,1.725,10.787c11.641,7.292,35.091,11.971,49.291,11.971      c14.202,0,37.65-4.679,49.292-11.971c5.461-3.42,4.168-9.339,1.725-10.787c-2.442-1.447-0.862-0.79-1.725-5.788      c-0.861-4.999,5.59-11.156-2.171-12.207C264.824,192.457,219.409,194.684,194.301,181.295z"
            id="path84"
          />
          <path
            style="fill-rule: evenodd; clip-rule: evenodd; fill: #ffffff"
            d="M195.729,210.681c1.169,0.596,2.414,1.174,3.723,1.727      c0.347-0.836,0.765-1.586,1.188-2.351c1.895-3.41,3.888-7.002,2.309-16.315c-0.596-3.516-0.954-5.666-0.641-7.329      c0.09-0.476,0.243-0.945,0.474-1.433c-1.309-0.461-2.584-0.953-3.824-1.477c-0.309,0.704-0.526,1.41-0.667,2.157      c-0.447,2.374-0.045,4.799,0.626,8.752c1.343,7.92-0.293,10.863-1.845,13.661C196.599,208.924,196.133,209.764,195.729,210.681      L195.729,210.681z M207.563,215.334c1.297,0.4,2.621,0.782,3.962,1.145c0.364-0.924,0.817-1.738,1.277-2.567      c1.894-3.41,3.887-7.002,2.308-16.317c-0.597-3.514-0.955-5.666-0.642-7.327c0.123-0.652,0.365-1.287,0.758-1.975      c-1.397-0.267-2.774-0.564-4.13-0.886c-0.297,0.688-0.507,1.379-0.645,2.108c-0.447,2.373-0.045,4.799,0.626,8.752      c1.343,7.918-0.292,10.863-1.844,13.659C208.627,213.019,208.031,214.092,207.563,215.334L207.563,215.334z M221.594,218.775      c1.367,0.259,2.73,0.496,4.079,0.71c0.395-1.289,0.977-2.336,1.57-3.407c1.895-3.41,3.888-7.002,2.309-16.315      c-0.597-3.516-0.954-5.666-0.642-7.327c0.143-0.756,0.447-1.493,0.959-2.313c-1.479-0.095-2.951-0.212-4.411-0.357      c-0.256,0.624-0.44,1.256-0.564,1.917c-0.447,2.374-0.045,4.799,0.625,8.751c1.343,7.92-0.291,10.866-1.844,13.661      C222.871,215.543,222.085,216.959,221.594,218.775L221.594,218.775z M240.739,220.926c0.418,0.007,0.833,0.011,1.238,0.011      c0.936,0,1.912-0.02,2.921-0.06c-0.167-0.853-0.354-1.682-0.543-2.521c-0.894-3.967-1.837-8.163-0.789-16.564      c0.485-3.888,0.776-6.271,0.458-8.566c-0.14-1.004-0.387-1.936-0.774-2.899c-1.496,0.049-2.995,0.074-4.492,0.077      c0.691,1.253,1.065,2.287,1.217,3.382c0.242,1.738-0.026,3.931-0.474,7.511c-1.132,9.067-0.104,13.636,0.869,17.956      C240.496,219.81,240.621,220.364,240.739,220.926L240.739,220.926z M258.281,219.485c1.35-0.214,2.713-0.451,4.08-0.71      c-0.492-1.816-1.278-3.232-2.081-4.681c-1.552-2.795-3.186-5.74-1.845-13.661c0.672-3.952,1.073-6.377,0.626-8.751      c-0.172-0.91-0.457-1.76-0.884-2.621c-1.467,0.203-2.948,0.383-4.438,0.542c0.727,1.035,1.134,1.917,1.306,2.831      c0.314,1.661-0.046,3.812-0.643,7.327c-1.579,9.313,0.416,12.905,2.309,16.315C257.306,217.149,257.888,218.196,258.281,219.485      L258.281,219.485z M272.429,216.479c1.343-0.362,2.666-0.744,3.963-1.145c-0.467-1.242-1.063-2.315-1.67-3.408      c-1.553-2.796-3.186-5.741-1.843-13.659c0.67-3.953,1.071-6.379,0.624-8.752c-0.21-1.12-0.592-2.146-1.198-3.212      c-1.382,0.357-2.788,0.691-4.217,1.003c0.785,1.092,1.22,2.012,1.398,2.962c0.313,1.661-0.045,3.813-0.641,7.327      c-1.581,9.315,0.414,12.907,2.308,16.317C271.614,214.74,272.065,215.555,272.429,216.479L272.429,216.479z M284.504,212.407      c1.308-0.553,2.554-1.131,3.723-1.727c-0.404-0.916-0.871-1.756-1.344-2.607c-1.552-2.798-3.186-5.74-1.843-13.661      c0.67-3.953,1.071-6.378,0.625-8.752c-0.219-1.161-0.622-2.224-1.269-3.333c-1.259,0.52-2.557,1.017-3.894,1.488      c0.627,0.936,0.986,1.754,1.146,2.597c0.313,1.663-0.045,3.813-0.641,7.329c-1.581,9.314,0.414,12.906,2.308,16.315      C283.739,210.821,284.156,211.571,284.504,212.407z"
            id="path85"
          />
          <path
            style="fill-rule: evenodd; clip-rule: evenodd; fill: #d08b3b"
            d="M265.084,218.232c2.522-0.529,5.039-1.127,7.494-1.794      c-1.34-9.735-5.536-25.691-18.657-26.855c-1.538,0.164-3.087,0.304-4.643,0.42c9.686,6.988,14.425,17.59,15.617,26.775      L265.084,218.232z"
            id="path86"
          />
          <path
            style="fill-rule: evenodd; clip-rule: evenodd; fill: #0f0e0e"
            d="M188.345,199.285c-0.049-0.373,0.212-0.714,0.585-0.766      c0.372-0.048,0.715,0.212,0.766,0.585c0.456,3.301,4.14,6.664,10.502,9.681c6.335,3.004,15.265,5.613,26.267,7.442      c17.126,2.846,26.515,0.54,35.461-1.656c1.385-0.339,2.76-0.679,4.196-1.003c0.85-0.194,11.472-3.804,19.754-7.471      c4.41-1.954,8.116-3.895,9.195-5.274c0.232-0.295,0.659-0.348,0.955-0.116c0.296,0.231,0.348,0.657,0.117,0.955      c-1.241,1.582-5.133,3.651-9.718,5.681c-8.347,3.696-19.135,7.355-20.005,7.552c-1.366,0.31-2.765,0.653-4.171,0.999      c-9.077,2.229-18.604,4.568-36.003,1.677c-11.136-1.85-20.189-4.5-26.631-7.553C192.822,206.796,188.867,203.07,188.345,199.285      z"
            id="path87"
          />
          <path
            style="fill-rule: evenodd; clip-rule: evenodd; fill: #0f0e0e"
            d="M190.306,189.346c-0.344-0.447-0.261-1.087,0.186-1.433      c0.446-0.344,1.088-0.262,1.433,0.184c3.989,5.143,4.474,6.399,4.475,6.403c0.211,0.523-0.044,1.118-0.567,1.328      c-0.523,0.209-1.118-0.045-1.328-0.569C194.502,195.256,194.122,194.262,190.306,189.346z"
            id="path88"
          />
          <path
            style="fill-rule: evenodd; clip-rule: evenodd; fill: #0f0e0e"
            d="M292.873,183.37c0.203-0.526,0.794-0.789,1.32-0.585      c0.526,0.203,0.787,0.795,0.584,1.32c-2.313,5.991-4.382,8.502-4.388,8.51c-0.353,0.44-0.996,0.51-1.436,0.155      c-0.439-0.353-0.509-0.996-0.156-1.435C288.804,191.329,290.679,189.052,292.873,183.37z"
            id="path89"
          />
        </g>
        <g
          id="g98"
        >
          <path
            style="fill-rule: evenodd; clip-rule: evenodd; fill: #0f0e0e"
            d="M298.394,252.163c-8.625,0.091-17.27,0.213-25.894,0.213      c-0.671,0-1.319-0.168-1.891-0.526c-1.539-0.968-1.894-2.852-1.965-4.532c-0.082-1.946,0.148-4.047,0.357-5.985      c0.598-5.563,1.288-10.972,1.273-16.593c-0.043-16.58-6.124-28.733-22.29-34.881c-0.573-0.218-2.155-0.267-2.368-0.842      c-0.373-1.012,4.108-5.988,7.539-5.707c1.172,0.096,2.418,0.058,3.591,0c1.571-0.078,3.145-0.222,4.708-0.411      c2.419-0.294,5.342-0.721,7.646-1.511c2.962-1.017,6.012-1.215,8.956-0.022c3.872,1.57,6.555,5.153,8.556,8.675      c2.33,4.101,4.1,8.67,5.878,13.037c1.497,3.677,2.71,7.485,3.722,11.321c1.82,6.905,3.056,14.083,3.773,21.188      c0.287,2.857,0.495,5.737,0.57,8.61c0.054,2.012,0.063,4.128-0.146,6.131C300.3,251.367,299.439,252.153,298.394,252.163z"
            id="path90"
          />
          <path
            style="fill-rule: evenodd; clip-rule: evenodd; fill: #e6ad3f"
            d="M248.711,187.943      c39.271,14.932,15.765,62.384,23.789,62.384c4.528,0,25.871-0.213,25.871-0.213c0.746-7.16-0.947-29.48-7.779-46.264      c-5.035-12.372-9.612-24.372-20.828-20.524c-4.063,1.393-12.918,2.342-16.775,2.025      C250.249,185.126,248.711,187.943,248.711,187.943z"
            id="path91"
          />
          <path
            style="fill-rule: evenodd; clip-rule: evenodd; fill: #d08b3b"
            d="M248.711,187.943      c39.271,14.932,15.765,62.384,23.789,62.384c4.528,0,25.871-0.213,25.871-0.213c0.373-3.566,0.138-10.898-1.035-19.434      c-3.786,0.224-8.6,1.862-14.495,2.599c-9.635,1.205-7.226-9.394-10.598-24.569c-3.037-13.662-13.492-20.295-21.699-22.712      C249.353,186.77,248.711,187.943,248.711,187.943z"
            id="path92"
          />
          <path
            style="fill-rule: evenodd; clip-rule: evenodd; fill: #ffffff"
            d="M255.932,191.457c1.326,0.81,2.557,1.668,3.685,2.572      c0.449-0.293,0.828-0.565,1.173-0.811c1.301-0.931,1.882-1.347,5.576-0.251c5.854,1.734,8.99-0.157,11.645-1.759      c0.637-0.382,1.238-0.745,1.76-0.963c1.633-0.68,4.568,0.922,5.391,1.402c-1.188-2.169-2.465-4.078-3.903-5.575      c-1.043-0.093-2.098-0.003-3.056,0.395c-0.822,0.344-1.542,0.778-2.304,1.237c-1.949,1.174-4.254,2.563-8.38,1.342      c-5.611-1.663-6.691-0.89-9.113,0.844C257.759,190.352,256.981,190.909,255.932,191.457z"
            id="path93"
          />
          <path
            style="fill-rule: evenodd; clip-rule: evenodd; fill: #ffffff"
            d="M264.585,198.98c0.869,1.086,1.647,2.207,2.343,3.359      l0.124-0.088c1.301-0.932,1.881-1.347,5.577-0.252c5.852,1.733,8.99-0.159,11.645-1.759c0.635-0.383,1.236-0.746,1.759-0.963      c0.755-0.314,1.788-0.141,2.764,0.182c-0.629-1.507-1.265-2.98-1.919-4.388c-0.829-0.009-1.651,0.112-2.413,0.429      c-0.823,0.344-1.542,0.778-2.303,1.235c-1.949,1.176-4.254,2.565-8.381,1.343c-5.611-1.663-6.692-0.889-9.113,0.843      L264.585,198.98z"
            id="path94"
          />
          <path
            style="fill-rule: evenodd; clip-rule: evenodd; fill: #ffffff"
            d="M270.085,209.251c0.457,1.387,0.828,2.792,1.13,4.204      l0.173-0.123c1.3-0.932,1.881-1.348,5.575-0.252c5.853,1.733,8.991-0.159,11.645-1.759c0.637-0.383,1.237-0.745,1.759-0.963      c0.71-0.295,1.666-0.161,2.588,0.125c-0.457-1.465-0.945-2.909-1.469-4.324c-0.921-0.042-1.842,0.069-2.687,0.421      c-0.823,0.344-1.542,0.777-2.304,1.236c-1.949,1.175-4.254,2.564-8.381,1.342C273.401,207.761,271.885,208.085,270.085,209.251z      "
            id="path95"
          />
          <path
            style="fill-rule: evenodd; clip-rule: evenodd; fill: #ffffff"
            d="M272.241,221.627c0.081,1.659,0.097,3.3,0.063,4.91      c0.709-0.429,1.254-0.819,1.733-1.163c1.3-0.932,1.881-1.346,5.577-0.252c5.852,1.734,8.99-0.157,11.643-1.759      c0.637-0.383,1.237-0.745,1.759-0.963c0.814-0.339,1.946-0.112,2.983,0.261c-0.284-1.45-0.596-2.908-0.936-4.369      c-1.222-0.179-2.485-0.139-3.616,0.332c-0.822,0.343-1.541,0.777-2.303,1.236c-1.949,1.174-4.254,2.563-8.38,1.342      C275.629,219.68,274.288,220.199,272.241,221.627z"
            id="path96"
          />
          <path
            style="fill-rule: evenodd; clip-rule: evenodd; fill: #ffffff"
            d="M271.926,233.171c-0.16,1.834-0.351,3.579-0.534,5.208      c1.187-0.639,1.979-1.206,2.646-1.684c1.3-0.932,1.881-1.348,5.577-0.252c5.852,1.733,8.99-0.158,11.643-1.759      c0.637-0.383,1.237-0.745,1.759-0.963c1.363-0.567,3.634,0.453,4.825,1.087c-0.161-1.501-0.355-3.058-0.58-4.656      c-1.794-0.6-3.979-0.971-5.814-0.208c-0.822,0.344-1.541,0.778-2.303,1.236c-1.949,1.175-4.254,2.563-8.38,1.342      C275.37,230.925,274.164,231.577,271.926,233.171z"
            id="path97"
          />
          <path
            style="fill-rule: evenodd; clip-rule: evenodd; fill: #0f0e0e"
            d="M256.546,185.072c-0.363-0.098-0.579-0.473-0.482-0.836      c0.098-0.363,0.472-0.579,0.835-0.481c2.364,0.64,4.633,1.048,6.707,1.292c2.589,0.304,4.869,0.354,6.654,0.282      c0.375-0.014,0.691,0.277,0.706,0.653c0.016,0.376-0.277,0.692-0.653,0.707c-1.852,0.075-4.208,0.023-6.862-0.288      C261.312,186.151,258.977,185.73,256.546,185.072z"
            id="path98"
          />
        </g>
        <path
          style="fill-rule: evenodd; clip-rule: evenodd; fill: #0f0e0e"
          d="M185.039,213.333c-0.011-0.564,0.436-1.029,1-1.041     c0.563-0.012,1.029,0.436,1.04,1c0.129,6.523,4.3,19.179,4.311,19.215c0.175,0.537-0.119,1.114-0.656,1.289     c-0.536,0.175-1.113-0.121-1.288-0.657C189.436,233.102,185.175,220.177,185.039,213.333z"
          id="path99"
        />
        <path
          style="fill-rule: evenodd; clip-rule: evenodd; fill: #0f0e0e"
          d="M300.638,211.116c-0.083-0.56,0.302-1.08,0.86-1.164     c0.56-0.085,1.08,0.302,1.164,0.86c1.048,6.8-0.146,18.824-0.148,18.859c-0.056,0.561-0.555,0.972-1.117,0.916     c-0.561-0.055-0.971-0.554-0.916-1.115C300.484,229.439,301.649,217.686,300.638,211.116z"
          id="path100"
        />
        <path
          style="fill-rule: evenodd; clip-rule: evenodd; fill: #d17f59"
          d="M211.155,261.027c-9.859,5.662-41.005,21.268-55.167,20.958     c-0.766-0.016-1.5-0.046-2.203-0.089c-0.73-0.045-1.426-0.103-2.09-0.172c0.379,0.376,0.795,0.726,1.247,1.046     c3.256,2.319,8.402,3.182,15.611,1.659c0.751-0.159,1.526-0.343,2.322-0.555c0.357-0.095,0.721-0.195,1.088-0.302     c16.753-4.842,37.571-16.315,41.809-18.702C212.846,263.826,211.575,261.758,211.155,261.027z"
          id="path101"
        />
        <path
          style="fill-rule: evenodd; clip-rule: evenodd; fill: #0f0e0e"
          d="M210.365,261.745c-0.15-0.543,0.168-1.107,0.711-1.257     c0.544-0.15,1.107,0.169,1.257,0.714c0.525,1.887,8.034,8.931,8.057,8.951c0.411,0.386,0.43,1.032,0.043,1.442     c-0.387,0.411-1.033,0.432-1.444,0.045C218.966,271.619,211.044,264.19,210.365,261.745z"
          id="path102"
        />
        <path
          style="fill-rule: evenodd; clip-rule: evenodd; fill: #0f0e0e"
          d="M254.352,275.974c-0.93,0.069-1.839-0.108-2.685-0.548     c-1.946-1.011-2.901-2.957-3.109-5.043c-1.025-0.052-1.981-0.403-2.702-1.208c-0.312-0.35-0.513-0.733-0.622-1.189     c-0.74-3.109-0.726-6.296,0.16-9.375c2.605-9.062,9.538-14.502,18.149-17.524c11.523-4.042,25.247-3.62,37.241-2.261     c13.224,1.501,40.225,6.341,41.927,22.725c0.112,1.073-0.148,2.672-0.299,3.752c-0.04,0.283-0.08,0.567-0.121,0.851     c0.194-0.638,0.519-1.204,1.086-1.295c0.089-0.015,0.179-0.012,0.266,0.005c0.61,0.125,0.677,0.794,0.698,1.294     c0.027,0.614,0.003,1.248-0.017,1.862c-0.06,1.837-0.139,3.666-0.114,5.505c0.02,1.574,0.099,3.308,0.452,4.843     c0.475,2.06,2.877,1.729,3.295,2.99c0.191,0.582-0.155,1.102-0.538,1.505c-2.179,2.298-5.01,3.729-8.074,4.439     c-5.198,1.203-10.915,0.358-15.977-1.105c-4.479-1.294-8.861-2.914-13.175-4.679c-7.058-2.887-13.949-6.178-20.718-9.686     c-2.508-1.301-5.008-2.619-7.473-3.998l-4.675,4.674c-2.69,2.69-6.979,5.756-10.736,6.561c-0.418,0.09-0.838,0.168-1.261,0.234     c-1.233,0.197-2.417-0.445-2.925-1.587c-0.021-0.046-0.039-0.092-0.059-0.14c-1.125,0.755-2.427,1.328-3.782,1.24     C256.637,278.692,255.171,277.628,254.352,275.974L254.352,275.974z M341.841,269.301c-0.063,0.457-0.122,0.912-0.177,1.371     c-0.181,1.489-0.553,4.722-0.188,6.912c0.127-1.776,0.173-4.306,0.196-4.961C341.715,271.526,341.756,270.407,341.841,269.301z"
          id="path103"
        />
        <path
          style="fill-rule: evenodd; clip-rule: evenodd; fill: #0f0e0e"
          d="M249.198,269.693c0.051,2.092,0.867,4.132,2.782,5.127     c0.918,0.475,1.869,0.575,2.79,0.414c0.616,1.566,1.877,2.773,3.838,2.9c1.452,0.094,2.9-0.715,4.135-1.694     c0.059,0.358,0.152,0.693,0.288,0.999c0.383,0.858,1.264,1.337,2.192,1.189c0.41-0.065,0.818-0.141,1.224-0.229     c3.617-0.775,7.813-3.79,10.398-6.374l5.04-5.041c2.603,1.465,5.262,2.871,7.904,4.241c6.737,3.49,13.638,6.786,20.662,9.659     c4.28,1.752,8.661,3.371,13.104,4.656c4.937,1.425,10.557,2.273,15.634,1.094c2.991-0.693,5.681-2.077,7.734-4.245     c1.647-1.735-2.246-0.907-2.928-3.872c-1.068-4.645,0.088-13.083-0.512-12.986c-1.678,0.269-0.744,15.804-1.968,14.127     c-2.355-3.229,0.804-15.258,0.516-18.038c-1.5-14.429-23.77-20.124-41.325-22.114c-11.898-1.351-25.569-1.765-36.939,2.224     c-8.153,2.86-15.097,8.049-17.719,17.069c-0.825,2.975-0.866,6.026-0.15,9.028c0.083,0.347,0.228,0.625,0.465,0.892     C247.095,269.535,248.125,269.77,249.198,269.693z"
          id="path104"
        />
        <path
          style="fill-rule: evenodd; clip-rule: evenodd; fill: #e9bc9d"
          d="M257.013,247.164c-6.577,5.112-11.046,12.11-9.122,20.188     c0.851,0.951,3.898-0.559,3.898-0.559c-1.711,3.927,0.679,8.515,4.605,5.474c0,0-0.348,3.65,2.347,3.823     c2.693,0.174,7.647-6.602,7.647-6.602s-2.366,5.139-1.485,7.117c0.367-0.058,0.739-0.126,1.116-0.208     c4.527-0.971,9.378-5.821,9.378-5.821l6.146-6.143c0,0,23.836,13.721,42.584,19.14c31.952,9.235,29.174-23.544,3.392-35.148     C303.5,237.611,267.492,239.013,257.013,247.164z"
          id="path105"
        />
        <path
          style="fill-rule: evenodd; clip-rule: evenodd; fill: #0f0e0e"
          d="M272.852,263.683c0.417-0.379,0.447-1.025,0.068-1.443     c-0.38-0.419-1.027-0.447-1.445-0.068c-8.18,7.436-9.513,13.146-9.517,13.161c-0.133,0.55,0.204,1.101,0.752,1.233     c0.547,0.134,1.1-0.202,1.232-0.752C263.946,275.8,265.134,270.698,272.852,263.683z"
          id="path106"
        />
        <path
          style="fill-rule: evenodd; clip-rule: evenodd; fill: #0f0e0e"
          d="M265.445,262.237c0.417-0.378,0.447-1.025,0.067-1.444     c-0.381-0.415-1.027-0.446-1.444-0.066c-8.18,7.436-9.514,13.145-9.517,13.16c-0.133,0.549,0.203,1.102,0.752,1.233     c0.547,0.133,1.099-0.204,1.232-0.752C256.538,274.353,257.727,269.254,265.445,262.237z"
          id="path107"
        />
        <path
          style="fill-rule: evenodd; clip-rule: evenodd; fill: #0f0e0e"
          d="M261.289,255.915c0.418-0.381,0.449-1.026,0.068-1.443     c-0.38-0.419-1.026-0.449-1.443-0.068c-8.156,7.415-10.4,14.981-10.406,15.002c-0.163,0.54,0.141,1.109,0.68,1.272     c0.539,0.163,1.109-0.141,1.273-0.679C251.467,269.978,253.548,262.953,261.289,255.915z"
          id="path108"
        />
        <path
          style="fill-rule: evenodd; clip-rule: evenodd; fill: #d17f59"
          d="M284.933,261.027c9.86,5.662,41.006,21.268,55.167,20.958     c0.768-0.016,1.5-0.046,2.204-0.089c0.73-0.045,1.426-0.103,2.091-0.172c-0.38,0.376-0.796,0.726-1.248,1.046     c-3.257,2.319-8.402,3.182-15.611,1.659c-0.75-0.159-1.525-0.343-2.321-0.555c-0.358-0.095-0.721-0.195-1.088-0.302     c-16.753-4.842-37.571-16.315-41.81-18.702C283.241,263.826,284.512,261.758,284.933,261.027z"
          id="path109"
        />
        <path
          style="fill-rule: evenodd; clip-rule: evenodd; fill: #0f0e0e"
          d="M285.724,261.745c0.149-0.543-0.168-1.107-0.712-1.257     c-0.544-0.15-1.106,0.169-1.257,0.714c-0.524,1.887-8.034,8.931-8.057,8.951c-0.41,0.386-0.43,1.032-0.044,1.442     c0.388,0.411,1.034,0.432,1.445,0.045C277.121,271.619,285.044,264.19,285.724,261.745z"
          id="path110"
        />
        <path
          style="fill-rule: evenodd; clip-rule: evenodd; fill: #0f0e0e"
          d="M146,248.685c-0.327,0.186-0.743,0.071-0.928-0.255     c-0.185-0.327-0.071-0.743,0.256-0.929c3.181-1.805,7.375-2.497,11.378-2.566c5.882-0.104,11.443,1.177,12.747,2.219     c0.293,0.233,0.341,0.66,0.107,0.953c-0.234,0.294-0.662,0.341-0.955,0.107c-1.136-0.909-6.289-2.019-11.879-1.919     C152.923,246.361,148.96,247.006,146,248.685z"
          id="path111"
        />
        <path
          style="fill-rule: evenodd; clip-rule: evenodd; fill: #0f0e0e"
          d="M319.429,245.314c-0.327,0.184-0.743,0.07-0.929-0.256     c-0.186-0.328-0.07-0.744,0.256-0.929c4.066-2.309,9.438-3.192,14.567-3.282c7.537-0.132,14.647,1.491,16.301,2.814     c0.294,0.235,0.342,0.662,0.108,0.955c-0.234,0.294-0.663,0.342-0.955,0.108c-1.487-1.191-8.188-2.645-15.434-2.518     C328.415,242.293,323.273,243.13,319.429,245.314z"
          id="path112"
        />
        <path
          style="fill-rule: evenodd; clip-rule: evenodd; fill: #0f0e0e"
          d="M183.972,433.509c0.299,0.813,0.783,1.828,1.6,2.24     c1.965,0.992,6.961-1.171,8.793-1.932c1.289-0.531,2.568-1.088,3.849-1.642c0.555-0.24,1.112-0.477,1.67-0.708     c0.379-0.155,0.766-0.295,1.157-0.419c1.307-0.415,4.067-1.999,5.321-1.063c1.033,0.773,1.47,0.432,1.811,1.954     c0.238,1.061,0.77,3.925-0.011,4.925c-1.785,2.287-6.61,4.345-9.186,5.591c-3.799,1.836-7.599,3.721-11.563,5.165     c-4.082,1.487-8.368,2.669-12.623,3.542c-6.548,1.34-20.66,3.495-25.16-3.073c-1.609-2.35-1.563-5.162-0.81-7.807     c2.622-9.197,14.109-15.042,22.573-17.54c0.356-0.105,0.686-0.114,1.048-0.029C178.411,424.114,181.911,427.914,183.972,433.509z     "
          id="path113"
        />
        <path
          style="fill-rule: evenodd; clip-rule: evenodd; fill: #7c6052"
          d="M182.05,434.217c-1.72-4.667-4.559-8.216-10.075-9.51     c-10.172,3.005-19.139,8.967-21.183,16.139c-4.056,14.229,21.726,10.024,35.92,4.851c2.368-0.863,19.597-8.658,19.739-10.317     c0.068-0.803-0.032-3.305-0.919-3.367c-1.195-0.087-3.457,0.772-4.869,1.352c-0.507,0.208-1.051,0.439-1.634,0.692     c-1.388,0.601-2.678,1.159-3.88,1.656C187.95,438.691,183.99,439.482,182.05,434.217z"
          id="path114"
        />
        <path
          style="fill-rule: evenodd; clip-rule: evenodd; fill: #0f0e0e"
          d="M148.872,444.828c-0.235-0.293-0.187-0.72,0.106-0.955     c0.293-0.233,0.721-0.184,0.955,0.108c1.623,2.029,11.374,3.343,25.056,0.596c9.249-1.857,20.23-5.611,31.637-12.32     c0.324-0.19,0.741-0.082,0.931,0.241c0.19,0.323,0.082,0.742-0.243,0.932c-11.55,6.795-22.679,10.598-32.059,12.48     C161.051,448.762,150.712,447.129,148.872,444.828z"
          id="path115"
        />
        <path
          style="fill-rule: evenodd; clip-rule: evenodd; fill: #0f0e0e"
          d="M316.152,433.509c-0.299,0.813-0.783,1.828-1.6,2.24     c-1.965,0.992-6.96-1.171-8.793-1.932c-1.289-0.531-2.569-1.088-3.849-1.642c-0.556-0.24-1.111-0.477-1.671-0.708     c-0.38-0.155-0.766-0.295-1.157-0.419c-1.306-0.415-4.066-1.999-5.32-1.063c-1.033,0.773-1.471,0.432-1.812,1.954     c-0.238,1.061-0.77,3.925,0.011,4.925c1.785,2.287,6.61,4.345,9.186,5.591c3.799,1.836,7.601,3.721,11.563,5.165     c4.082,1.487,8.368,2.669,12.623,3.542c6.549,1.34,20.66,3.495,25.16-3.073c1.608-2.35,1.563-5.162,0.81-7.807     c-2.623-9.197-14.11-15.042-22.573-17.54c-0.355-0.105-0.687-0.114-1.049-0.029C321.715,424.114,318.215,427.914,316.152,433.509     z"
          id="path116"
        />
        <path
          style="fill-rule: evenodd; clip-rule: evenodd; fill: #7c6052"
          d="M318.075,434.217c1.72-4.667,4.558-8.216,10.075-9.51     c10.172,3.005,19.14,8.967,21.184,16.139c4.055,14.229-21.727,10.024-35.92,4.851c-2.369-0.863-19.598-8.658-19.739-10.317     c-0.069-0.803,0.031-3.305,0.918-3.367c1.195-0.087,3.456,0.772,4.869,1.352c0.507,0.208,1.052,0.439,1.635,0.692     c1.387,0.601,2.678,1.159,3.88,1.656C312.176,438.691,316.136,439.482,318.075,434.217z"
          id="path117"
        />
        <path
          style="fill-rule: evenodd; clip-rule: evenodd; fill: #0f0e0e"
          d="M351.254,444.828c0.234-0.293,0.186-0.72-0.106-0.955     c-0.294-0.233-0.722-0.184-0.955,0.108c-1.625,2.029-11.374,3.343-25.057,0.596c-9.25-1.857-20.23-5.611-31.638-12.32     c-0.324-0.19-0.74-0.082-0.931,0.241c-0.19,0.323-0.081,0.742,0.242,0.932c11.552,6.795,22.682,10.598,32.06,12.48     C339.074,448.762,349.412,447.129,351.254,444.828z"
          id="path118"
        />
      </g>
    </g>
  </g>
</svg>
